<svg xmlns="http://www.w3.org/2000/svg" xmlns:xlink="http://www.w3.org/1999/xlink" width="1080" zoomAndPan="magnify" viewBox="0 0 810 809.999993" height="1080" preserveAspectRatio="xMidYMid meet" version="1.0"><defs><g/><clipPath id="0dc4a91c7f"><path d="M 20.328125 20.328125 L 789.671875 20.328125 L 789.671875 789.671875 L 20.328125 789.671875 Z M 20.328125 20.328125 " clip-rule="nonzero"/></clipPath><clipPath id="ebbe92dbed"><path d="M 405 20.328125 C 192.550781 20.328125 20.328125 192.550781 20.328125 405 C 20.328125 617.449219 192.550781 789.671875 405 789.671875 C 617.449219 789.671875 789.671875 617.449219 789.671875 405 C 789.671875 192.550781 617.449219 20.328125 405 20.328125 Z M 405 20.328125 " clip-rule="nonzero"/></clipPath><clipPath id="78c9d83d75"><path d="M 0.328125 0.328125 L 769.671875 0.328125 L 769.671875 769.671875 L 0.328125 769.671875 Z M 0.328125 0.328125 " clip-rule="nonzero"/></clipPath><clipPath id="216f2025ee"><path d="M 385 0.328125 C 172.550781 0.328125 0.328125 172.550781 0.328125 385 C 0.328125 597.449219 172.550781 769.671875 385 769.671875 C 597.449219 769.671875 769.671875 597.449219 769.671875 385 C 769.671875 172.550781 597.449219 0.328125 385 0.328125 Z M 385 0.328125 " clip-rule="nonzero"/></clipPath><clipPath id="b94d5988fc"><rect x="0" width="770" y="0" height="770"/></clipPath><clipPath id="bfa6d7d793"><path d="M 20.328125 20.328125 L 789.664062 20.328125 L 789.664062 789.664062 L 20.328125 789.664062 Z M 20.328125 20.328125 " clip-rule="nonzero"/></clipPath><clipPath id="58d7e01f60"><path d="M 404.996094 20.328125 C 192.550781 20.328125 20.328125 192.550781 20.328125 404.996094 C 20.328125 617.441406 192.550781 789.664062 404.996094 789.664062 C 617.441406 789.664062 789.664062 617.441406 789.664062 404.996094 C 789.664062 192.550781 617.441406 20.328125 404.996094 20.328125 Z M 404.996094 20.328125 " clip-rule="nonzero"/></clipPath><clipPath id="60bb11b15b"><path d="M 174.09375 174.09375 L 635.90625 174.09375 L 635.90625 635.90625 L 174.09375 635.90625 Z M 174.09375 174.09375 " clip-rule="nonzero"/></clipPath><clipPath id="8072619b6d"><path d="M 405 174.09375 C 277.472656 174.09375 174.09375 277.472656 174.09375 405 C 174.09375 532.527344 277.472656 635.90625 405 635.90625 C 532.527344 635.90625 635.90625 532.527344 635.90625 405 C 635.90625 277.472656 532.527344 174.09375 405 174.09375 Z M 405 174.09375 " clip-rule="nonzero"/></clipPath><clipPath id="a1d609bc11"><path d="M 0.09375 0.09375 L 461.90625 0.09375 L 461.90625 461.90625 L 0.09375 461.90625 Z M 0.09375 0.09375 " clip-rule="nonzero"/></clipPath><clipPath id="baf85bf6f8"><path d="M 231 0.09375 C 103.472656 0.09375 0.09375 103.472656 0.09375 231 C 0.09375 358.527344 103.472656 461.90625 231 461.90625 C 358.527344 461.90625 461.90625 358.527344 461.90625 231 C 461.90625 103.472656 358.527344 0.09375 231 0.09375 Z M 231 0.09375 " clip-rule="nonzero"/></clipPath><clipPath id="8a7778918c"><rect x="0" width="462" y="0" height="462"/></clipPath><clipPath id="bb48062daa"><path d="M 174.09375 174.09375 L 635.894531 174.09375 L 635.894531 635.894531 L 174.09375 635.894531 Z M 174.09375 174.09375 " clip-rule="nonzero"/></clipPath><clipPath id="d0593597c5"><path d="M 404.996094 174.09375 C 277.472656 174.09375 174.09375 277.472656 174.09375 404.996094 C 174.09375 532.519531 277.472656 635.894531 404.996094 635.894531 C 532.519531 635.894531 635.894531 532.519531 635.894531 404.996094 C 635.894531 277.472656 532.519531 174.09375 404.996094 174.09375 Z M 404.996094 174.09375 " clip-rule="nonzero"/></clipPath><clipPath id="f9ef69d27d"><rect x="0" width="185" y="0" height="675"/></clipPath></defs><rect x="-81" width="972" fill="#ffffff" y="-80.999999" height="971.999992" fill-opacity="1"/><rect x="-81" width="972" fill="#bf0000" y="-80.999999" height="971.999992" fill-opacity="1"/><g clip-path="url(#0dc4a91c7f)"><g clip-path="url(#ebbe92dbed)"><g transform="matrix(1, 0, 0, 1, 20, 20)"><g clip-path="url(#b94d5988fc)"><g clip-path="url(#78c9d83d75)"><g clip-path="url(#216f2025ee)"><path fill="#ffbb00" d="M 0.328125 0.328125 L 769.671875 0.328125 L 769.671875 769.671875 L 0.328125 769.671875 Z M 0.328125 0.328125 " fill-opacity="1" fill-rule="nonzero"/></g></g></g></g></g></g><g clip-path="url(#bfa6d7d793)"><g clip-path="url(#58d7e01f60)"><path stroke-linecap="butt" transform="matrix(0.75, 0, 0, 0.75, 20.32893, 20.328947)" fill="none" stroke-linejoin="miter" d="M 512.889577 -0.00109544 C 229.629146 -0.00109544 -0.00107344 229.629124 -0.00107344 512.889555 C -0.00107344 796.149986 229.629146 1025.780206 512.889577 1025.780206 C 796.150008 1025.780206 1025.780228 796.149986 1025.780228 512.889555 C 1025.780228 229.629124 796.150008 -0.00109544 512.889577 -0.00109544 Z M 512.889577 -0.00109544 " stroke="#000000" stroke-width="88" stroke-opacity="1" stroke-miterlimit="4"/></g></g><g clip-path="url(#60bb11b15b)"><g clip-path="url(#8072619b6d)"><g transform="matrix(1, 0, 0, 1, 174, 174)"><g clip-path="url(#8a7778918c)"><g clip-path="url(#a1d609bc11)"><g clip-path="url(#baf85bf6f8)"><path fill="#bf0000" d="M 0.09375 0.09375 L 461.90625 0.09375 L 461.90625 461.90625 L 0.09375 461.90625 Z M 0.09375 0.09375 " fill-opacity="1" fill-rule="nonzero"/></g></g></g></g></g></g><g clip-path="url(#bb48062daa)"><g clip-path="url(#d0593597c5)"><path stroke-linecap="butt" transform="matrix(0.75, 0, 0, 0.75, 174.094478, 174.094494)" fill="none" stroke-linejoin="miter" d="M 307.868837 -0.000992589 C 137.837578 -0.000992589 -0.000970589 137.837556 -0.000970589 307.868815 C -0.000970589 477.900073 137.837578 615.733413 307.868837 615.733413 C 477.900095 615.733413 615.733435 477.900073 615.733435 307.868815 C 615.733435 137.837556 477.900095 -0.000992589 307.868837 -0.000992589 Z M 307.868837 -0.000992589 " stroke="#000000" stroke-width="88" stroke-opacity="1" stroke-miterlimit="4"/></g></g><g transform="matrix(1, 0, 0, 1, 313, 81)"><g clip-path="url(#f9ef69d27d)"><g fill="#ffbb00" fill-opacity="1"><g transform="translate(0.49281, 529.541869)"><g><path d="M 181.03125 -5.4375 C 181.6875 -3.132812 181.765625 -1.648438 181.265625 -0.984375 C 180.773438 -0.328125 179.210938 -0.164062 176.578125 -0.5 C 168.003906 0.164062 159.265625 0.414062 150.359375 0.25 C 141.453125 0.0820312 132.710938 0 124.140625 0 L 118.703125 0 C 116.722656 0 115.734375 -0.988281 115.734375 -2.96875 C 115.734375 -7.914062 115.320312 -12.78125 114.5 -17.5625 C 113.675781 -22.34375 113.265625 -27.039062 113.265625 -31.65625 C 113.597656 -33.300781 113.597656 -35.03125 113.265625 -36.84375 C 112.929688 -38.65625 112.601562 -40.390625 112.28125 -42.046875 C 111.945312 -45.671875 111.695312 -49.460938 111.53125 -53.421875 C 111.363281 -57.378906 110.953125 -61.171875 110.296875 -64.796875 C 109.960938 -67.097656 109.796875 -69.40625 109.796875 -71.71875 C 109.796875 -74.03125 109.796875 -76.335938 109.796875 -78.640625 C 109.472656 -81.273438 109.0625 -82.835938 108.5625 -83.328125 C 108.070312 -83.828125 106.507812 -84.078125 103.875 -84.078125 C 102.21875 -84.078125 100.484375 -83.992188 98.671875 -83.828125 C 96.859375 -83.671875 95.128906 -83.59375 93.484375 -83.59375 C 88.203125 -83.257812 82.925781 -83.257812 77.65625 -83.59375 C 75.34375 -83.914062 73.773438 -83.828125 72.953125 -83.328125 C 72.128906 -82.835938 71.71875 -81.273438 71.71875 -78.640625 C 71.382812 -72.046875 70.96875 -65.367188 70.46875 -58.609375 C 69.976562 -51.847656 69.40625 -45.171875 68.75 -38.578125 C 68.414062 -34.296875 68.082031 -29.84375 67.75 -25.21875 C 67.425781 -20.601562 67.097656 -15.988281 66.765625 -11.375 C 66.765625 -10.050781 66.515625 -8.726562 66.015625 -7.40625 C 65.523438 -6.09375 65.28125 -4.613281 65.28125 -2.96875 C 65.613281 -1.644531 64.628906 -0.65625 62.328125 0 L 46.984375 0 C 33.460938 -0.65625 19.945312 -0.65625 6.4375 0 C 5.769531 0 4.941406 -0.0820312 3.953125 -0.25 C 2.960938 -0.414062 2.140625 -0.660156 1.484375 -0.984375 L 1.484375 -2.96875 C 3.128906 -5.28125 3.953125 -7.671875 3.953125 -10.140625 C 3.953125 -12.609375 4.117188 -15 4.453125 -17.3125 L 5.9375 -27.203125 C 6.59375 -31.816406 7.164062 -36.347656 7.65625 -40.796875 C 8.15625 -45.253906 8.570312 -49.789062 8.90625 -54.40625 C 9.5625 -60.007812 10.300781 -65.78125 11.125 -71.71875 C 11.945312 -77.65625 12.523438 -83.425781 12.859375 -89.03125 C 13.515625 -93.976562 14.171875 -98.84375 14.828125 -103.625 C 15.492188 -108.40625 15.992188 -113.101562 16.328125 -117.71875 C 16.984375 -121.34375 17.640625 -124.96875 18.296875 -128.59375 C 18.960938 -132.226562 19.128906 -135.859375 18.796875 -139.484375 C 18.796875 -141.128906 18.957031 -142.773438 19.28125 -144.421875 C 19.613281 -146.078125 19.945312 -147.726562 20.28125 -149.375 C 21.269531 -153 21.765625 -156.460938 21.765625 -159.765625 C 21.429688 -160.421875 21.347656 -161.160156 21.515625 -161.984375 C 21.679688 -162.804688 21.765625 -163.546875 21.765625 -164.203125 C 23.078125 -168.160156 23.898438 -172.203125 24.234375 -176.328125 C 24.566406 -180.453125 24.894531 -184.65625 25.21875 -188.9375 L 28.1875 -215.15625 C 28.851562 -218.445312 29.347656 -221.742188 29.671875 -225.046875 C 30.003906 -228.347656 30.335938 -231.644531 30.671875 -234.9375 C 30.992188 -238.5625 31.484375 -242.101562 32.140625 -245.5625 C 32.804688 -249.03125 33.304688 -252.578125 33.640625 -256.203125 C 34.296875 -264.773438 35.28125 -273.019531 36.59375 -280.9375 C 37.257812 -286.539062 37.835938 -291.976562 38.328125 -297.25 C 38.828125 -302.53125 39.570312 -307.8125 40.5625 -313.09375 C 41.21875 -318.363281 41.957031 -323.550781 42.78125 -328.65625 C 43.601562 -333.769531 44.015625 -338.96875 44.015625 -344.25 C 44.015625 -346.226562 45.003906 -346.882812 46.984375 -346.21875 C 49.617188 -345.894531 52.335938 -345.734375 55.140625 -345.734375 C 57.953125 -345.734375 60.835938 -345.734375 63.796875 -345.734375 C 74.023438 -345.734375 84.082031 -345.976562 93.96875 -346.46875 C 103.863281 -346.96875 113.921875 -346.882812 124.140625 -346.21875 C 125.796875 -345.894531 127.53125 -345.8125 129.34375 -345.96875 C 131.15625 -346.132812 133.050781 -346.21875 135.03125 -346.21875 C 137.332031 -346.21875 138.8125 -346.132812 139.46875 -345.96875 C 140.132812 -345.8125 140.632812 -344.414062 140.96875 -341.78125 C 141.625 -338.144531 142.113281 -334.429688 142.4375 -330.640625 C 142.769531 -326.847656 143.101562 -323.140625 143.4375 -319.515625 C 143.769531 -316.878906 144.179688 -314.320312 144.671875 -311.84375 C 145.171875 -309.375 145.582031 -306.820312 145.90625 -304.1875 L 147.390625 -283.90625 C 148.046875 -279.613281 148.703125 -275.40625 149.359375 -271.28125 C 150.023438 -267.164062 150.6875 -262.96875 151.34375 -258.6875 C 151.675781 -258.019531 151.84375 -256.863281 151.84375 -255.21875 C 151.507812 -251.59375 151.753906 -248.046875 152.578125 -244.578125 C 153.410156 -241.117188 153.988281 -237.578125 154.3125 -233.953125 C 154.3125 -231.640625 154.394531 -229.328125 154.5625 -227.015625 C 154.726562 -224.710938 154.976562 -222.40625 155.3125 -220.09375 C 156.300781 -213.832031 157.125 -207.648438 157.78125 -201.546875 C 158.4375 -195.453125 159.097656 -189.269531 159.765625 -183 L 164.203125 -147.890625 C 164.867188 -140.304688 165.859375 -132.640625 167.171875 -124.890625 C 168.492188 -117.140625 169.484375 -109.472656 170.140625 -101.890625 C 170.472656 -97.597656 170.96875 -93.472656 171.625 -89.515625 C 172.289062 -85.566406 172.785156 -81.613281 173.109375 -77.65625 C 173.441406 -73.363281 173.851562 -69.15625 174.34375 -65.03125 C 174.84375 -60.914062 175.257812 -56.878906 175.59375 -52.921875 C 175.914062 -49.953125 176.238281 -47.066406 176.5625 -44.265625 C 176.894531 -41.460938 177.226562 -38.578125 177.5625 -35.609375 C 178.550781 -32.316406 179.046875 -28.523438 179.046875 -24.234375 C 179.046875 -20.941406 179.289062 -17.8125 179.78125 -14.84375 C 180.28125 -11.875 180.695312 -8.738281 181.03125 -5.4375 Z M 104.359375 -337.328125 C 103.046875 -337.328125 102.71875 -336.992188 103.375 -336.328125 C 103.375 -336.003906 103.457031 -335.84375 103.625 -335.84375 C 103.789062 -335.84375 103.875 -335.675781 103.875 -335.34375 C 104.53125 -335.675781 104.859375 -336.003906 104.859375 -336.328125 C 104.859375 -336.992188 104.691406 -337.328125 104.359375 -337.328125 Z M 57.875 -335.84375 C 57.539062 -336.164062 57.375 -336 57.375 -335.34375 C 57.375 -334.6875 57.539062 -334.359375 57.875 -334.359375 C 58.53125 -334.359375 58.859375 -334.6875 58.859375 -335.34375 C 58.859375 -335.34375 58.773438 -335.425781 58.609375 -335.59375 C 58.441406 -335.757812 58.195312 -335.84375 57.875 -335.84375 Z M 67.265625 -328.421875 C 66.929688 -328.421875 66.765625 -328.09375 66.765625 -327.4375 C 66.765625 -327.101562 66.929688 -326.769531 67.265625 -326.4375 C 68.253906 -327.425781 69.328125 -327.507812 70.484375 -326.6875 C 71.640625 -325.863281 72.710938 -325.945312 73.703125 -326.9375 C 74.691406 -328.582031 75.1875 -330.394531 75.1875 -332.375 C 74.195312 -331.71875 73.78125 -330.894531 73.9375 -329.90625 C 74.101562 -328.914062 74.023438 -327.925781 73.703125 -326.9375 C 71.722656 -329.570312 69.578125 -330.066406 67.265625 -328.421875 Z M 82.109375 -328.421875 C 81.441406 -328.421875 81.109375 -327.925781 81.109375 -326.9375 C 81.109375 -326.28125 81.441406 -325.953125 82.109375 -325.953125 C 82.765625 -325.953125 83.09375 -326.445312 83.09375 -327.4375 C 83.09375 -328.75 82.765625 -329.078125 82.109375 -328.421875 Z M 72.703125 -320.015625 C 74.359375 -319.679688 75.347656 -320.09375 75.671875 -321.25 C 76.003906 -322.40625 76.664062 -323.144531 77.65625 -323.46875 C 78.644531 -323.46875 78.804688 -324.128906 78.140625 -325.453125 C 77.816406 -326.109375 77.160156 -325.941406 76.171875 -324.953125 C 75.179688 -324.296875 74.191406 -323.632812 73.203125 -322.96875 C 72.210938 -322.3125 71.054688 -321.65625 69.734375 -321 C 66.765625 -320.007812 66.601562 -318.523438 69.25 -316.546875 L 72.21875 -315.0625 C 73.207031 -315.0625 73.703125 -315.394531 73.703125 -316.0625 C 74.359375 -317.375 74.023438 -318.195312 72.703125 -318.53125 C 72.378906 -318.53125 72.21875 -318.773438 72.21875 -319.265625 C 72.21875 -319.765625 72.378906 -320.015625 72.703125 -320.015625 Z M 48.46875 -317.046875 C 47.8125 -317.703125 47.484375 -317.703125 47.484375 -317.046875 C 47.484375 -315.398438 47.976562 -314.578125 48.96875 -314.578125 C 49.957031 -314.242188 50.613281 -314.40625 50.9375 -315.0625 C 49.625 -315.726562 48.800781 -316.390625 48.46875 -317.046875 Z M 70.234375 -310.125 C 70.234375 -309.789062 70.726562 -309.296875 71.71875 -308.640625 C 72.707031 -308.640625 73.203125 -308.800781 73.203125 -309.125 C 73.203125 -309.789062 73.035156 -310.125 72.703125 -310.125 C 72.378906 -310.125 72.050781 -310.285156 71.71875 -310.609375 C 71.382812 -310.941406 70.890625 -310.78125 70.234375 -310.125 Z M 54.90625 -287.859375 C 53.914062 -287.859375 53.582031 -287.363281 53.90625 -286.375 C 53.90625 -286.375 53.988281 -286.289062 54.15625 -286.125 C 54.320312 -285.96875 54.570312 -285.890625 54.90625 -285.890625 C 55.5625 -286.546875 55.890625 -287.039062 55.890625 -287.375 C 55.890625 -287.695312 55.5625 -287.859375 54.90625 -287.859375 Z M 77.65625 -139.484375 C 77.320312 -137.171875 77.316406 -135.847656 77.640625 -135.515625 C 77.972656 -135.191406 79.128906 -135.03125 81.109375 -135.03125 C 83.753906 -135.03125 86.476562 -135.109375 89.28125 -135.265625 C 92.082031 -135.429688 94.96875 -135.515625 97.9375 -135.515625 C 101.894531 -135.191406 103.953125 -135.273438 104.109375 -135.765625 C 104.273438 -136.265625 104.359375 -138.492188 104.359375 -142.453125 C 104.359375 -142.773438 104.273438 -143.101562 104.109375 -143.4375 C 103.953125 -143.769531 103.875 -144.097656 103.875 -144.421875 C 103.539062 -147.722656 103.125 -151.019531 102.625 -154.3125 C 102.132812 -157.613281 101.890625 -160.910156 101.890625 -164.203125 C 101.890625 -166.847656 101.890625 -169.488281 101.890625 -172.125 C 101.890625 -174.757812 101.722656 -177.234375 101.390625 -179.546875 C 100.734375 -184.492188 100.238281 -189.519531 99.90625 -194.625 C 99.582031 -199.738281 99.085938 -204.769531 98.421875 -209.71875 C 98.097656 -212.6875 98.015625 -215.648438 98.171875 -218.609375 C 98.335938 -221.578125 98.09375 -224.546875 97.4375 -227.515625 C 96.445312 -232.128906 95.867188 -236.910156 95.703125 -241.859375 C 95.535156 -246.804688 95.125 -251.753906 94.46875 -256.703125 C 94.132812 -260.660156 94.132812 -264.617188 94.46875 -268.578125 C 94.800781 -272.535156 94.96875 -276.328125 94.96875 -279.953125 C 94.96875 -280.609375 94.96875 -281.347656 94.96875 -282.171875 C 94.96875 -282.992188 94.472656 -283.570312 93.484375 -283.90625 C 91.503906 -284.894531 89.359375 -284.894531 87.046875 -283.90625 C 86.722656 -283.90625 86.5625 -283.410156 86.5625 -282.421875 C 87.21875 -281.097656 87.296875 -279.859375 86.796875 -278.703125 C 86.304688 -277.554688 86.226562 -276.320312 86.5625 -275 C 86.882812 -267.082031 86.71875 -259.164062 86.0625 -251.25 C 85.40625 -243.34375 84.742188 -235.269531 84.078125 -227.03125 C 83.753906 -226.039062 83.753906 -225.050781 84.078125 -224.0625 C 84.410156 -223.070312 84.410156 -222.082031 84.078125 -221.09375 C 83.421875 -218.78125 83.007812 -216.550781 82.84375 -214.40625 C 82.675781 -212.269531 82.59375 -210.210938 82.59375 -208.234375 L 82.59375 -200.8125 C 81.9375 -197.507812 81.523438 -194.289062 81.359375 -191.15625 C 81.191406 -188.03125 80.78125 -184.816406 80.125 -181.515625 C 80.125 -179.867188 80.207031 -178.222656 80.375 -176.578125 C 80.539062 -174.929688 80.457031 -173.28125 80.125 -171.625 C 79.132812 -166.675781 78.640625 -161.734375 78.640625 -156.796875 C 78.640625 -153.828125 78.472656 -150.941406 78.140625 -148.140625 C 77.816406 -145.335938 77.65625 -142.453125 77.65625 -139.484375 Z M 48.96875 -264.609375 C 48.96875 -263.617188 49.460938 -263.125 50.453125 -263.125 C 50.773438 -262.800781 50.9375 -262.96875 50.9375 -263.625 C 50.613281 -263.957031 50.53125 -264.367188 50.6875 -264.859375 C 50.851562 -265.359375 50.609375 -265.609375 49.953125 -265.609375 Z M 57.375 -252.75 C 57.039062 -252.75 56.957031 -252.5 57.125 -252 C 57.289062 -251.507812 57.207031 -251.097656 56.875 -250.765625 L 54.90625 -249.28125 C 54.570312 -248.625 54.238281 -247.960938 53.90625 -247.296875 C 53.582031 -246.640625 53.75 -245.984375 54.40625 -245.328125 L 55.390625 -245.328125 C 56.054688 -245.984375 56.054688 -246.640625 55.390625 -247.296875 C 54.734375 -247.960938 54.570312 -248.457031 54.90625 -248.78125 L 54.90625 -249.28125 C 55.5625 -249.28125 56.132812 -249.195312 56.625 -249.03125 C 57.125 -248.863281 57.539062 -248.78125 57.875 -248.78125 C 59.1875 -248.78125 59.347656 -249.273438 58.359375 -250.265625 C 58.035156 -250.597656 57.953125 -251.09375 58.109375 -251.75 C 58.273438 -252.414062 58.03125 -252.75 57.375 -252.75 Z M 69.25 -246.3125 C 69.90625 -246.3125 70.066406 -246.640625 69.734375 -247.296875 C 69.734375 -248.617188 69.40625 -249.445312 68.75 -249.78125 C 68.414062 -250.101562 67.921875 -249.9375 67.265625 -249.28125 C 67.265625 -248.625 67.925781 -247.632812 69.25 -246.3125 Z M 51.4375 -244.828125 C 51.101562 -244.828125 50.9375 -244.578125 50.9375 -244.078125 C 50.9375 -243.585938 50.609375 -243.179688 49.953125 -242.859375 C 49.953125 -242.191406 50.117188 -241.859375 50.453125 -241.859375 C 51.441406 -241.859375 52.097656 -242.519531 52.421875 -243.84375 C 52.421875 -243.84375 52.335938 -244.003906 52.171875 -244.328125 C 52.015625 -244.660156 51.769531 -244.828125 51.4375 -244.828125 Z M 63.796875 -241.859375 L 62.328125 -241.859375 C 62.648438 -241.535156 63.054688 -241.207031 63.546875 -240.875 C 64.046875 -240.539062 64.460938 -240.046875 64.796875 -239.390625 C 64.796875 -239.054688 64.957031 -238.972656 65.28125 -239.140625 C 65.613281 -239.304688 65.78125 -239.554688 65.78125 -239.890625 C 65.78125 -241.867188 65.117188 -242.523438 63.796875 -241.859375 Z M 53.90625 -238.890625 C 53.90625 -239.554688 53.578125 -239.890625 52.921875 -239.890625 C 51.929688 -239.890625 51.519531 -239.554688 51.6875 -238.890625 C 51.851562 -238.234375 51.769531 -237.578125 51.4375 -236.921875 C 51.4375 -236.253906 51.601562 -235.921875 51.9375 -235.921875 C 52.59375 -236.253906 53.003906 -236.75 53.171875 -237.40625 C 53.335938 -238.070312 53.582031 -238.566406 53.90625 -238.890625 Z M 128.59375 -236.921875 C 127.9375 -236.921875 127.609375 -236.585938 127.609375 -235.921875 C 128.597656 -234.929688 129.257812 -234.4375 129.59375 -234.4375 C 129.59375 -234.4375 129.671875 -234.519531 129.828125 -234.6875 C 129.992188 -234.851562 129.914062 -235.101562 129.59375 -235.4375 C 129.59375 -236.425781 129.257812 -236.921875 128.59375 -236.921875 Z M 117.71875 -231.96875 C 115.738281 -231.96875 114.75 -231.640625 114.75 -230.984375 C 114.75 -229.992188 115.570312 -229.5 117.21875 -229.5 C 118.875 -229.5 119.703125 -229.828125 119.703125 -230.484375 C 119.703125 -231.472656 119.039062 -231.96875 117.71875 -231.96875 Z M 108.8125 -230.484375 C 107.488281 -229.828125 107.488281 -229.171875 108.8125 -228.515625 C 109.144531 -228.179688 109.144531 -227.765625 108.8125 -227.265625 C 108.476562 -226.773438 108.644531 -226.53125 109.3125 -226.53125 C 109.96875 -227.1875 110.296875 -227.757812 110.296875 -228.25 C 110.296875 -228.75 110.296875 -229.164062 110.296875 -229.5 C 109.960938 -230.488281 109.46875 -230.816406 108.8125 -230.484375 Z M 40.0625 -230 C 39.40625 -230.320312 39.078125 -230.15625 39.078125 -229.5 C 39.078125 -228.84375 39.40625 -228.515625 40.0625 -228.515625 C 40.71875 -228.515625 40.882812 -228.675781 40.5625 -229 C 40.5625 -229.664062 40.394531 -230 40.0625 -230 Z M 131.5625 -230 C 130.90625 -230 130.578125 -229.664062 130.578125 -229 C 130.578125 -228.675781 131.398438 -228.019531 133.046875 -227.03125 C 133.046875 -226.695312 133.128906 -226.691406 133.296875 -227.015625 C 133.460938 -227.347656 133.546875 -227.679688 133.546875 -228.015625 C 133.210938 -228.347656 132.960938 -228.675781 132.796875 -229 C 132.640625 -229.332031 132.226562 -229.664062 131.5625 -230 Z M 121.671875 -228.515625 C 121.015625 -227.523438 121.015625 -226.367188 121.671875 -225.046875 C 121.671875 -224.390625 122.332031 -224.0625 123.65625 -224.0625 C 124.96875 -225.050781 124.800781 -225.546875 123.15625 -225.546875 C 122.820312 -226.203125 122.820312 -226.691406 123.15625 -227.015625 C 123.488281 -227.347656 123.65625 -227.679688 123.65625 -228.015625 C 123.65625 -228.671875 123.488281 -229 123.15625 -229 C 122.5 -229 122.003906 -228.835938 121.671875 -228.515625 Z M 67.265625 -227.03125 C 66.273438 -226.695312 65.78125 -225.707031 65.78125 -224.0625 C 65.78125 -223.070312 66.109375 -222.90625 66.765625 -223.5625 C 68.421875 -224.21875 69.082031 -224.878906 68.75 -225.546875 C 68.75 -226.535156 68.253906 -227.03125 67.265625 -227.03125 Z M 116.734375 -221.578125 C 116.066406 -221.910156 115.648438 -221.664062 115.484375 -220.84375 C 115.328125 -220.019531 114.914062 -219.28125 114.25 -218.625 C 116.226562 -219.28125 117.382812 -219.113281 117.71875 -218.125 C 118.707031 -218.78125 119.203125 -219.4375 119.203125 -220.09375 C 119.203125 -221.082031 118.378906 -221.578125 116.734375 -221.578125 Z M 72.21875 -219.109375 C 71.882812 -219.765625 71.304688 -220.175781 70.484375 -220.34375 C 69.660156 -220.507812 68.914062 -220.757812 68.25 -221.09375 C 67.257812 -221.09375 67.097656 -220.757812 67.765625 -220.09375 C 68.421875 -219.769531 68.832031 -219.195312 69 -218.375 C 69.164062 -217.550781 69.742188 -217.300781 70.734375 -217.625 C 71.722656 -217.625 72.21875 -218.117188 72.21875 -219.109375 Z M 49.953125 -220.59375 L 49.953125 -219.609375 C 49.953125 -217.960938 50.773438 -217.300781 52.421875 -217.625 C 53.085938 -217.625 53.582031 -218.117188 53.90625 -219.109375 C 52.914062 -219.109375 51.597656 -219.601562 49.953125 -220.59375 Z M 36.59375 -219.609375 C 35.613281 -219.609375 35.125 -219.113281 35.125 -218.125 C 35.125 -217.46875 35.453125 -217.140625 36.109375 -217.140625 C 36.765625 -217.140625 37.09375 -217.632812 37.09375 -218.625 C 37.425781 -219.28125 37.257812 -219.609375 36.59375 -219.609375 Z M 44.515625 -198.34375 C 44.179688 -199 43.601562 -199.570312 42.78125 -200.0625 C 41.957031 -200.5625 41.710938 -200.976562 42.046875 -201.3125 C 42.703125 -202.625 42.695312 -203.609375 42.03125 -204.265625 C 41.375 -204.929688 40.882812 -205.757812 40.5625 -206.75 C 40.5625 -208.394531 40.066406 -208.890625 39.078125 -208.234375 C 37.421875 -208.234375 37.085938 -207.40625 38.078125 -205.75 C 38.742188 -203.113281 38.25 -200.972656 36.59375 -199.328125 C 35.9375 -198.671875 35.691406 -197.765625 35.859375 -196.609375 C 36.023438 -195.453125 36.269531 -194.707031 36.59375 -194.375 C 37.914062 -192.394531 37.585938 -191.078125 35.609375 -190.421875 C 34.953125 -189.765625 34.953125 -188.941406 35.609375 -187.953125 C 35.941406 -187.617188 36.601562 -187.945312 37.59375 -188.9375 C 39.894531 -189.601562 41.210938 -190.757812 41.546875 -192.40625 C 42.535156 -194.382812 43.359375 -194.546875 44.015625 -192.890625 C 45.335938 -194.210938 46.328125 -195.039062 46.984375 -195.375 C 47.648438 -197.019531 48.3125 -197.179688 48.96875 -195.859375 C 49.625 -195.203125 49.953125 -194.546875 49.953125 -193.890625 C 50.285156 -193.554688 50.285156 -193.222656 49.953125 -192.890625 C 49.617188 -192.566406 49.125 -192.566406 48.46875 -192.890625 C 47.15625 -193.222656 46.25 -192.894531 45.75 -191.90625 C 45.257812 -190.914062 44.679688 -190.09375 44.015625 -189.4375 C 43.359375 -188.78125 43.03125 -188.453125 43.03125 -188.453125 C 42.695312 -187.785156 43.023438 -187.453125 44.015625 -187.453125 C 47.972656 -187.453125 48.960938 -186.132812 46.984375 -183.5 C 46.660156 -182.507812 46.992188 -182.015625 47.984375 -182.015625 C 49.296875 -181.359375 49.953125 -181.523438 49.953125 -182.515625 C 49.617188 -184.160156 49.78125 -185.5625 50.4375 -186.71875 C 51.101562 -187.875 51.269531 -189.109375 50.9375 -190.421875 C 50.9375 -192.398438 51.765625 -193.222656 53.421875 -192.890625 C 54.734375 -192.566406 55.800781 -192.816406 56.625 -193.640625 C 57.457031 -194.460938 57.539062 -195.367188 56.875 -196.359375 C 55.882812 -198.335938 56.21875 -199.820312 57.875 -200.8125 C 58.863281 -201.46875 59.519531 -201.300781 59.84375 -200.3125 C 60.175781 -199.320312 60.507812 -198.828125 60.84375 -198.828125 C 59.519531 -197.515625 59.269531 -196.195312 60.09375 -194.875 C 60.914062 -193.550781 61 -192.066406 60.34375 -190.421875 L 60.84375 -189.9375 C 60.84375 -190.257812 61.003906 -190.503906 61.328125 -190.671875 C 61.660156 -190.835938 61.828125 -190.921875 61.828125 -190.921875 C 61.828125 -192.566406 61.742188 -193.96875 61.578125 -195.125 C 61.410156 -196.28125 61.164062 -197.515625 60.84375 -198.828125 C 61.5 -199.492188 62.070312 -200.070312 62.5625 -200.5625 C 63.0625 -201.0625 63.804688 -201.3125 64.796875 -201.3125 C 65.117188 -201.3125 65.445312 -201.472656 65.78125 -201.796875 C 66.113281 -202.128906 66.113281 -202.460938 65.78125 -202.796875 C 63.800781 -203.453125 63.222656 -204.023438 64.046875 -204.515625 C 64.867188 -205.015625 65.445312 -205.59375 65.78125 -206.25 C 66.113281 -206.25 66.523438 -206.410156 67.015625 -206.734375 C 67.515625 -207.066406 67.429688 -207.398438 66.765625 -207.734375 C 65.453125 -208.390625 64.628906 -208.554688 64.296875 -208.234375 C 63.960938 -207.898438 63.710938 -207.566406 63.546875 -207.234375 C 63.390625 -206.910156 63.144531 -206.582031 62.8125 -206.25 C 62.15625 -205.257812 61.5 -205.09375 60.84375 -205.75 C 60.507812 -206.082031 60.425781 -206.332031 60.59375 -206.5 C 60.757812 -206.664062 60.84375 -206.910156 60.84375 -207.234375 C 61.5 -208.554688 62.320312 -209.710938 63.3125 -210.703125 C 64.300781 -211.691406 64.300781 -213.007812 63.3125 -214.65625 C 63.3125 -214.988281 63.804688 -215.15625 64.796875 -215.15625 C 65.453125 -215.15625 65.78125 -215.320312 65.78125 -215.65625 C 65.78125 -216.3125 65.613281 -216.804688 65.28125 -217.140625 C 63.3125 -217.796875 61.832031 -217.300781 60.84375 -215.65625 C 60.507812 -214.988281 60.34375 -214.242188 60.34375 -213.421875 C 60.34375 -212.597656 60.175781 -211.859375 59.84375 -211.203125 C 59.1875 -207.566406 57.046875 -206.082031 53.421875 -206.75 C 51.109375 -207.070312 49.703125 -207.398438 49.203125 -207.734375 C 48.710938 -208.066406 48.304688 -209.382812 47.984375 -211.6875 C 47.984375 -213.664062 47.488281 -214.65625 46.5 -214.65625 C 46.5 -215.320312 46.414062 -215.898438 46.25 -216.390625 C 46.082031 -216.890625 46.328125 -217.300781 46.984375 -217.625 C 47.316406 -217.625 47.566406 -217.867188 47.734375 -218.359375 C 47.898438 -218.859375 47.816406 -219.109375 47.484375 -219.109375 C 46.828125 -218.785156 46.164062 -218.867188 45.5 -219.359375 C 44.84375 -219.847656 44.1875 -219.765625 43.53125 -219.109375 C 42.863281 -218.453125 42.695312 -217.628906 43.03125 -216.640625 C 43.6875 -214.992188 44.675781 -214.171875 46 -214.171875 C 46 -213.179688 45.914062 -212.191406 45.75 -211.203125 C 45.582031 -210.210938 45.003906 -209.382812 44.015625 -208.71875 C 43.023438 -207.726562 43.191406 -206.90625 44.515625 -206.25 C 45.503906 -206.25 46 -205.921875 46 -205.265625 C 46 -204.273438 45.832031 -203.203125 45.5 -202.046875 C 45.175781 -200.890625 45.175781 -199.816406 45.5 -198.828125 C 45.5 -197.835938 45.171875 -197.675781 44.515625 -198.34375 Z M 50.9375 -211.6875 C 50.613281 -210.695312 51.441406 -210.203125 53.421875 -210.203125 C 54.410156 -209.878906 54.90625 -210.128906 54.90625 -210.953125 C 54.90625 -211.773438 55.066406 -212.351562 55.390625 -212.6875 C 55.390625 -213.675781 54.734375 -214.332031 53.421875 -214.65625 C 51.765625 -214.65625 50.9375 -213.664062 50.9375 -211.6875 Z M 106.34375 -214.171875 C 106.34375 -214.171875 106.34375 -214.25 106.34375 -214.40625 C 106.34375 -214.570312 106.175781 -214.65625 105.84375 -214.65625 C 105.519531 -214.65625 105.191406 -214.492188 104.859375 -214.171875 C 104.859375 -214.171875 104.859375 -214.085938 104.859375 -213.921875 C 104.859375 -213.753906 105.023438 -213.671875 105.359375 -213.671875 C 105.679688 -213.671875 106.007812 -213.835938 106.34375 -214.171875 Z M 32.15625 -214.171875 C 31.820312 -213.835938 31.816406 -213.421875 32.140625 -212.921875 C 32.472656 -212.429688 32.640625 -211.859375 32.640625 -211.203125 C 31.984375 -209.546875 32.476562 -208.71875 34.125 -208.71875 C 35.445312 -208.71875 36.109375 -209.546875 36.109375 -211.203125 C 35.453125 -211.203125 34.789062 -211.53125 34.125 -212.1875 C 33.800781 -212.84375 33.472656 -213.253906 33.140625 -213.421875 C 32.804688 -213.585938 32.476562 -213.835938 32.15625 -214.171875 Z M 39.078125 -213.171875 C 39.398438 -213.503906 39.476562 -213.753906 39.3125 -213.921875 C 39.15625 -214.085938 39.078125 -214.171875 39.078125 -214.171875 C 38.085938 -214.171875 37.257812 -213.675781 36.59375 -212.6875 C 36.59375 -212.351562 36.429688 -212.019531 36.109375 -211.6875 L 37.59375 -211.6875 C 38.582031 -212.675781 39.078125 -213.171875 39.078125 -213.171875 Z M 134.046875 -213.671875 C 133.378906 -214.003906 133.046875 -213.675781 133.046875 -212.6875 C 133.046875 -211.363281 133.210938 -210.535156 133.546875 -210.203125 C 134.203125 -210.203125 134.695312 -210.695312 135.03125 -211.6875 C 134.695312 -212.019531 134.613281 -212.347656 134.78125 -212.671875 C 134.945312 -213.003906 134.703125 -213.335938 134.046875 -213.671875 Z M 51.9375 -198.828125 C 52.59375 -199.492188 52.921875 -200.15625 52.921875 -200.8125 C 52.921875 -201.46875 52.671875 -201.960938 52.171875 -202.296875 C 51.679688 -202.628906 51.765625 -202.957031 52.421875 -203.28125 C 53.085938 -203.613281 53.5 -203.445312 53.65625 -202.78125 C 53.820312 -202.125 54.070312 -201.46875 54.40625 -200.8125 C 55.0625 -200.15625 55.140625 -199.660156 54.640625 -199.328125 C 54.148438 -198.992188 53.578125 -198.5 52.921875 -197.84375 L 52.421875 -197.84375 C 52.097656 -197.84375 51.9375 -198.171875 51.9375 -198.828125 Z M 72.21875 -202.296875 C 72.21875 -202.296875 72.132812 -202.378906 71.96875 -202.546875 C 71.800781 -202.710938 71.550781 -202.796875 71.21875 -202.796875 C 70.5625 -202.796875 70.234375 -202.460938 70.234375 -201.796875 C 70.234375 -201.140625 70.726562 -200.8125 71.71875 -200.8125 C 72.050781 -200.8125 72.21875 -201.304688 72.21875 -202.296875 Z M 66.765625 -188.9375 C 66.765625 -188.28125 67.257812 -187.953125 68.25 -187.953125 C 68.914062 -188.285156 69.25 -189.109375 69.25 -190.421875 C 69.25 -191.410156 68.914062 -191.738281 68.25 -191.40625 C 67.925781 -191.082031 67.597656 -190.753906 67.265625 -190.421875 C 66.929688 -190.097656 66.765625 -189.601562 66.765625 -188.9375 Z M 54.40625 -185.96875 C 55.394531 -185.644531 56.382812 -185.234375 57.375 -184.734375 C 58.363281 -184.242188 58.691406 -183.171875 58.359375 -181.515625 C 58.359375 -181.191406 58.523438 -180.945312 58.859375 -180.78125 C 59.191406 -180.613281 59.359375 -180.695312 59.359375 -181.03125 L 60.34375 -182.015625 C 60.34375 -183.335938 59.765625 -184.65625 58.609375 -185.96875 C 57.453125 -187.289062 56.050781 -187.953125 54.40625 -187.953125 C 53.75 -187.953125 53.421875 -187.785156 53.421875 -187.453125 C 53.085938 -186.460938 53.414062 -185.96875 54.40625 -185.96875 Z M 62.328125 -184.484375 C 62.328125 -184.484375 62.65625 -184.15625 63.3125 -183.5 C 64.957031 -184.488281 65.78125 -185.3125 65.78125 -185.96875 C 65.78125 -187.625 65.453125 -188.117188 64.796875 -187.453125 C 63.472656 -186.140625 62.648438 -185.148438 62.328125 -184.484375 Z M 121.171875 -185.96875 C 121.171875 -186.632812 120.925781 -186.882812 120.4375 -186.71875 C 119.945312 -186.550781 119.535156 -186.46875 119.203125 -186.46875 C 118.867188 -186.46875 118.375 -186.550781 117.71875 -186.71875 C 117.0625 -186.882812 116.734375 -186.632812 116.734375 -185.96875 C 116.398438 -185.3125 117.054688 -184.984375 118.703125 -184.984375 C 119.035156 -184.984375 119.445312 -184.984375 119.9375 -184.984375 C 120.4375 -184.984375 120.847656 -185.3125 121.171875 -185.96875 Z M 34.625 -183 C 34.625 -182.34375 34.953125 -182.015625 35.609375 -182.015625 C 36.265625 -182.015625 36.757812 -181.847656 37.09375 -181.515625 C 37.75 -181.191406 38.078125 -181.6875 38.078125 -183 C 38.410156 -183.988281 37.753906 -184.484375 36.109375 -184.484375 C 35.773438 -184.484375 35.28125 -183.988281 34.625 -183 Z M 57.375 -175.09375 C 57.375 -175.425781 57.289062 -175.671875 57.125 -175.828125 C 56.957031 -175.992188 56.875 -176.078125 56.875 -176.078125 C 55.882812 -176.734375 55.390625 -176.570312 55.390625 -175.59375 C 55.066406 -175.257812 54.90625 -174.765625 54.90625 -174.109375 C 55.5625 -174.109375 56.054688 -174.269531 56.390625 -174.59375 C 57.046875 -174.59375 57.375 -174.757812 57.375 -175.09375 Z M 47.484375 -173.109375 C 47.816406 -173.109375 47.984375 -173.441406 47.984375 -174.109375 L 45.5 -175.59375 C 45.5 -175.914062 45.414062 -175.910156 45.25 -175.578125 C 45.09375 -175.253906 45.015625 -174.925781 45.015625 -174.59375 C 46.003906 -173.601562 46.828125 -173.109375 47.484375 -173.109375 Z M 54.90625 -173.609375 C 53.25 -175.253906 52.09375 -175.421875 51.4375 -174.109375 C 50.78125 -173.441406 50.613281 -172.78125 50.9375 -172.125 C 51.601562 -171.789062 52.179688 -171.867188 52.671875 -172.359375 C 53.171875 -172.859375 53.582031 -173.109375 53.90625 -173.109375 C 54.238281 -172.785156 54.488281 -172.703125 54.65625 -172.859375 C 54.820312 -173.023438 54.90625 -173.109375 54.90625 -173.109375 C 54.90625 -172.117188 55.234375 -171.625 55.890625 -171.625 C 57.210938 -171.625 57.875 -171.625 57.875 -171.625 C 58.195312 -171.957031 58.109375 -172.207031 57.609375 -172.375 C 57.117188 -172.539062 56.710938 -172.625 56.390625 -172.625 C 55.722656 -172.625 55.226562 -172.785156 54.90625 -173.109375 Z M 65.78125 -168.171875 C 67.101562 -167.503906 67.765625 -167.832031 67.765625 -169.15625 C 66.773438 -169.8125 65.863281 -170.632812 65.03125 -171.625 C 64.207031 -172.613281 63.304688 -173.273438 62.328125 -173.609375 C 61.992188 -173.609375 61.660156 -173.441406 61.328125 -173.109375 C 61.003906 -172.785156 61.003906 -172.289062 61.328125 -171.625 C 62.648438 -169.644531 64.132812 -168.492188 65.78125 -168.171875 Z M 48.96875 -167.171875 C 48.96875 -167.503906 48.640625 -167.835938 47.984375 -168.171875 C 47.648438 -167.835938 47.148438 -167.503906 46.484375 -167.171875 C 45.828125 -166.847656 45.5 -166.191406 45.5 -165.203125 C 45.175781 -164.867188 45.09375 -164.617188 45.25 -164.453125 C 45.414062 -164.285156 45.664062 -164.367188 46 -164.703125 C 47.320312 -164.703125 48.3125 -165.523438 48.96875 -167.171875 Z M 66.28125 -134.53125 C 64.957031 -135.1875 64.457031 -135.925781 64.78125 -136.75 C 65.113281 -137.582031 65.445312 -138.492188 65.78125 -139.484375 C 66.769531 -140.472656 67.265625 -140.96875 67.265625 -140.96875 C 66.929688 -141.625 66.597656 -141.703125 66.265625 -141.203125 C 65.941406 -140.710938 65.453125 -140.632812 64.796875 -140.96875 C 64.460938 -140.96875 64.296875 -141.128906 64.296875 -141.453125 C 64.296875 -141.785156 64.128906 -142.117188 63.796875 -142.453125 C 64.460938 -143.441406 64.957031 -144.429688 65.28125 -145.421875 C 65.613281 -146.410156 65.285156 -147.234375 64.296875 -147.890625 C 63.304688 -148.546875 62.726562 -149.453125 62.5625 -150.609375 C 62.40625 -151.765625 61.992188 -152.671875 61.328125 -153.328125 C 60.335938 -154.316406 59.347656 -154.476562 58.359375 -153.8125 C 57.367188 -153.15625 56.21875 -152.992188 54.90625 -153.328125 L 53.90625 -153.328125 C 52.914062 -154.316406 52.914062 -154.8125 53.90625 -154.8125 C 55.5625 -155.46875 56.960938 -156.617188 58.109375 -158.265625 C 59.265625 -159.921875 60.832031 -160.914062 62.8125 -161.25 C 64.789062 -161.90625 65.453125 -163.054688 64.796875 -164.703125 C 64.128906 -166.347656 63.140625 -167.171875 61.828125 -167.171875 C 60.503906 -167.171875 59.84375 -166.179688 59.84375 -164.203125 C 59.1875 -164.535156 58.523438 -164.535156 57.859375 -164.203125 C 57.203125 -163.878906 56.546875 -163.878906 55.890625 -164.203125 C 54.898438 -164.867188 54.15625 -165.28125 53.65625 -165.4375 C 53.164062 -165.601562 53.085938 -164.695312 53.421875 -162.71875 C 53.742188 -162.394531 53.578125 -162.234375 52.921875 -162.234375 C 52.265625 -162.234375 51.769531 -162.394531 51.4375 -162.71875 C 51.101562 -163.050781 50.851562 -163.546875 50.6875 -164.203125 C 50.53125 -164.867188 50.117188 -165.035156 49.453125 -164.703125 C 48.140625 -164.046875 47.8125 -163.222656 48.46875 -162.234375 C 49.125 -160.910156 48.796875 -159.59375 47.484375 -158.28125 C 47.148438 -157.289062 47.316406 -156.460938 47.984375 -155.796875 C 48.640625 -155.140625 49.128906 -154.316406 49.453125 -153.328125 C 49.785156 -152.335938 49.457031 -151.347656 48.46875 -150.359375 C 48.46875 -149.703125 48.632812 -149.207031 48.96875 -148.875 C 49.625 -148.875 50.28125 -148.957031 50.9375 -149.125 C 51.601562 -149.289062 52.265625 -149.375 52.921875 -149.375 C 52.921875 -149.375 52.753906 -149.535156 52.421875 -149.859375 C 52.097656 -150.191406 51.9375 -150.523438 51.9375 -150.859375 C 51.9375 -151.179688 51.6875 -151.507812 51.1875 -151.84375 C 50.695312 -152.175781 50.945312 -152.503906 51.9375 -152.828125 C 53.25 -152.828125 54.316406 -152.5 55.140625 -151.84375 C 55.972656 -151.1875 56.882812 -150.523438 57.875 -149.859375 C 58.195312 -149.535156 58.03125 -149.039062 57.375 -148.375 C 57.039062 -148.050781 56.546875 -147.640625 55.890625 -147.140625 C 55.234375 -146.648438 54.570312 -146.570312 53.90625 -146.90625 C 52.59375 -147.226562 51.601562 -146.894531 50.9375 -145.90625 C 50.28125 -144.914062 49.625 -144.09375 48.96875 -143.4375 C 48.3125 -143.4375 47.984375 -143.765625 47.984375 -144.421875 C 47.648438 -144.753906 47.484375 -145.25 47.484375 -145.90625 C 47.484375 -146.570312 46.988281 -146.738281 46 -146.40625 C 45.664062 -146.40625 45.171875 -145.742188 44.515625 -144.421875 C 44.515625 -143.765625 44.347656 -143.269531 44.015625 -142.9375 C 44.015625 -142.613281 43.6875 -142.285156 43.03125 -141.953125 C 42.375 -141.617188 42.207031 -141.125 42.53125 -140.46875 C 43.195312 -140.132812 43.859375 -140.132812 44.515625 -140.46875 C 45.171875 -140.800781 45.664062 -141.296875 46 -141.953125 C 46.65625 -142.285156 47.226562 -142.453125 47.71875 -142.453125 C 48.21875 -142.453125 48.632812 -142.78125 48.96875 -143.4375 C 50.613281 -142.445312 51.519531 -141.785156 51.6875 -141.453125 C 51.851562 -141.128906 51.109375 -140.304688 49.453125 -138.984375 C 48.472656 -138.328125 48.144531 -137.335938 48.46875 -136.015625 C 48.800781 -135.679688 49.296875 -135.429688 49.953125 -135.265625 C 50.609375 -135.109375 50.9375 -135.191406 50.9375 -135.515625 C 51.601562 -137.171875 52.675781 -138.328125 54.15625 -138.984375 C 55.644531 -139.640625 56.222656 -140.796875 55.890625 -142.453125 C 56.546875 -141.460938 57.203125 -140.390625 57.859375 -139.234375 C 58.523438 -138.078125 59.847656 -137.828125 61.828125 -138.484375 C 62.816406 -138.816406 63.3125 -138.648438 63.3125 -137.984375 C 63.3125 -137.328125 63.144531 -136.671875 62.8125 -136.015625 C 62.8125 -135.679688 61.988281 -135.101562 60.34375 -134.28125 C 58.695312 -133.457031 57.707031 -133.210938 57.375 -133.546875 C 55.394531 -134.859375 53.742188 -135.019531 52.421875 -134.03125 C 51.109375 -133.050781 49.628906 -132.226562 47.984375 -131.5625 C 46.003906 -130.25 46.003906 -128.601562 47.984375 -126.625 C 47.984375 -126.289062 48.0625 -126.125 48.21875 -126.125 C 48.382812 -126.125 48.46875 -126.125 48.46875 -126.125 C 49.125 -127.113281 49.125 -128.597656 48.46875 -130.578125 C 48.46875 -130.910156 48.382812 -131.078125 48.21875 -131.078125 C 48.0625 -131.078125 47.984375 -131.238281 47.984375 -131.5625 C 49.628906 -131.5625 51.023438 -131.5625 52.171875 -131.5625 C 53.328125 -131.5625 54.566406 -131.894531 55.890625 -132.5625 C 57.210938 -133.21875 58.445312 -132.882812 59.59375 -131.5625 C 60.75 -130.25 61.820312 -130.742188 62.8125 -133.046875 C 62.8125 -133.046875 62.972656 -132.960938 63.296875 -132.796875 C 63.628906 -132.640625 63.960938 -132.5625 64.296875 -132.5625 C 64.953125 -131.238281 65.773438 -131.070312 66.765625 -132.0625 C 67.429688 -132.71875 67.269531 -133.539062 66.28125 -134.53125 Z M 59.84375 -164.203125 L 59.84375 -163.71875 Z M 59.84375 -164.203125 Z M 61.828125 -162.234375 C 61.171875 -162.234375 60.507812 -162.890625 59.84375 -164.203125 C 59.84375 -163.878906 59.925781 -163.796875 60.09375 -163.953125 C 60.257812 -164.117188 60.34375 -164.203125 60.34375 -164.203125 C 60.675781 -163.878906 61.003906 -163.796875 61.328125 -163.953125 C 61.660156 -164.117188 61.992188 -163.875 62.328125 -163.21875 C 62.984375 -162.5625 62.816406 -162.234375 61.828125 -162.234375 Z M 31.15625 -159.765625 C 30.164062 -159.765625 30.003906 -159.429688 30.671875 -158.765625 C 30.671875 -158.109375 31 -157.78125 31.65625 -157.78125 C 32.3125 -157.78125 32.640625 -158.109375 32.640625 -158.765625 C 32.640625 -159.097656 32.472656 -159.265625 32.140625 -159.265625 C 31.816406 -159.265625 31.488281 -159.429688 31.15625 -159.765625 Z M 41.546875 -149.375 C 41.546875 -148.050781 41.875 -147.71875 42.53125 -148.375 C 44.1875 -149.363281 45.015625 -150.191406 45.015625 -150.859375 C 45.015625 -152.171875 44.519531 -152.828125 43.53125 -152.828125 C 42.207031 -152.828125 41.546875 -151.675781 41.546875 -149.375 Z M 58.359375 -143.9375 C 57.703125 -143.9375 57.207031 -143.769531 56.875 -143.4375 C 56.550781 -143.101562 56.222656 -142.773438 55.890625 -142.453125 C 55.554688 -142.117188 55.140625 -141.953125 54.640625 -141.953125 C 54.148438 -141.953125 53.90625 -141.953125 53.90625 -141.953125 C 53.582031 -142.609375 53.75 -143.269531 54.40625 -143.9375 C 55.0625 -144.59375 55.71875 -145.082031 56.375 -145.40625 C 57.039062 -145.738281 57.539062 -146.070312 57.875 -146.40625 C 59.519531 -148.050781 60.671875 -149.367188 61.328125 -150.359375 C 61.992188 -149.703125 62.160156 -148.960938 61.828125 -148.140625 C 61.492188 -147.316406 61.328125 -146.570312 61.328125 -145.90625 C 61.328125 -145.582031 61.65625 -145.171875 62.3125 -144.671875 C 62.976562 -144.179688 63.472656 -143.601562 63.796875 -142.9375 L 62.328125 -140.96875 C 61.335938 -139.976562 60.507812 -139.644531 59.84375 -139.96875 C 58.195312 -139.96875 57.703125 -140.796875 58.359375 -142.453125 C 58.359375 -143.441406 58.359375 -143.9375 58.359375 -143.9375 Z M 36.59375 -140.46875 C 37.914062 -140.46875 38.410156 -140.960938 38.078125 -141.953125 C 37.753906 -142.941406 37.753906 -143.765625 38.078125 -144.421875 L 38.578125 -147.890625 C 38.578125 -149.203125 37.914062 -149.859375 36.59375 -149.859375 C 36.269531 -149.535156 35.773438 -149.375 35.109375 -149.375 C 34.453125 -149.375 34.125 -149.039062 34.125 -148.375 C 33.800781 -147.0625 33.96875 -146.566406 34.625 -146.890625 C 35.28125 -147.222656 35.773438 -147.226562 36.109375 -146.90625 C 37.097656 -145.914062 37.425781 -144.925781 37.09375 -143.9375 C 37.09375 -143.269531 36.925781 -142.523438 36.59375 -141.703125 C 36.269531 -140.878906 36.269531 -140.46875 36.59375 -140.46875 Z M 131.078125 -145.421875 C 131.398438 -145.742188 131.234375 -146.070312 130.578125 -146.40625 C 129.921875 -146.40625 129.59375 -146.40625 129.59375 -146.40625 C 129.257812 -146.070312 129.257812 -145.578125 129.59375 -144.921875 C 129.914062 -144.921875 130.160156 -145.003906 130.328125 -145.171875 C 130.492188 -145.335938 130.742188 -145.421875 131.078125 -145.421875 Z M 43.53125 -136.015625 C 44.84375 -136.015625 45.5 -136.34375 45.5 -137 C 45.5 -137.988281 45.171875 -138.484375 44.515625 -138.484375 C 43.859375 -138.484375 43.195312 -137.988281 42.53125 -137 C 42.53125 -136.34375 42.863281 -136.015625 43.53125 -136.015625 Z M 30.671875 -135.03125 C 30.671875 -135.03125 30.75 -134.863281 30.90625 -134.53125 C 31.070312 -134.207031 31.320312 -134.207031 31.65625 -134.53125 C 32.976562 -135.1875 33.640625 -136.007812 33.640625 -137 C 32.972656 -137.664062 32.476562 -138 32.15625 -138 C 31.164062 -137.664062 30.671875 -136.675781 30.671875 -135.03125 Z M 46 -133.546875 C 46.332031 -133.878906 46.414062 -134.207031 46.25 -134.53125 C 46.082031 -134.863281 45.832031 -134.863281 45.5 -134.53125 C 44.1875 -134.53125 43.363281 -134.203125 43.03125 -133.546875 C 43.03125 -132.890625 43.523438 -132.5625 44.515625 -132.5625 Z M 36.59375 -130.578125 C 37.582031 -130.578125 37.75 -130.90625 37.09375 -131.5625 C 37.09375 -132.226562 36.765625 -132.5625 36.109375 -132.5625 C 35.453125 -132.5625 35.285156 -132.066406 35.609375 -131.078125 C 35.609375 -130.742188 35.9375 -130.578125 36.59375 -130.578125 Z M 40.5625 -128.59375 C 41.550781 -128.59375 42.207031 -129.085938 42.53125 -130.078125 C 42.53125 -130.078125 42.53125 -130.160156 42.53125 -130.328125 C 42.53125 -130.492188 42.367188 -130.578125 42.046875 -130.578125 C 41.378906 -130.242188 40.71875 -129.75 40.0625 -129.09375 C 39.726562 -129.09375 39.644531 -129.007812 39.8125 -128.84375 C 39.976562 -128.675781 40.226562 -128.59375 40.5625 -128.59375 Z M 31.65625 -128.59375 C 32.3125 -126.945312 32.972656 -125.957031 33.640625 -125.625 C 34.296875 -125.625 34.789062 -126.117188 35.125 -127.109375 C 34.457031 -128.097656 33.628906 -128.925781 32.640625 -129.59375 C 32.316406 -129.914062 31.988281 -129.910156 31.65625 -129.578125 C 31.320312 -129.253906 31.320312 -128.925781 31.65625 -128.59375 Z M 126.625 -128.59375 C 125.957031 -129.257812 125.128906 -129.175781 124.140625 -128.34375 C 123.148438 -127.519531 122.328125 -127.769531 121.671875 -129.09375 C 121.671875 -128.757812 121.585938 -128.507812 121.421875 -128.34375 C 121.253906 -128.1875 121.171875 -127.941406 121.171875 -127.609375 L 121.671875 -127.109375 C 122.328125 -126.785156 123.316406 -126.785156 124.640625 -127.109375 C 124.640625 -127.109375 124.882812 -127.109375 125.375 -127.109375 C 125.875 -127.109375 126.289062 -127.273438 126.625 -127.609375 C 127.28125 -127.609375 127.28125 -127.9375 126.625 -128.59375 Z M 85.5625 -120.1875 C 85.5625 -119.863281 85.804688 -119.703125 86.296875 -119.703125 C 86.796875 -119.703125 87.210938 -119.863281 87.546875 -120.1875 C 88.535156 -120.84375 89.03125 -121.503906 89.03125 -122.171875 C 88.375 -124.148438 87.21875 -124.972656 85.5625 -124.640625 C 83.257812 -123.984375 81.941406 -124.804688 81.609375 -127.109375 C 81.609375 -127.441406 81.441406 -127.769531 81.109375 -128.09375 C 80.785156 -128.425781 80.289062 -128.265625 79.625 -127.609375 C 79.300781 -127.273438 79.300781 -126.613281 79.625 -125.625 C 79.625 -125.300781 79.789062 -124.972656 80.125 -124.640625 C 81.113281 -124.304688 82.1875 -123.890625 83.34375 -123.390625 C 84.5 -122.898438 85.238281 -121.832031 85.5625 -120.1875 Z M 90.015625 -126.625 C 90.015625 -126.625 89.929688 -126.539062 89.765625 -126.375 C 89.609375 -126.207031 89.691406 -125.957031 90.015625 -125.625 C 90.015625 -125.300781 90.507812 -125.140625 91.5 -125.140625 C 91.5 -125.140625 91.660156 -125.21875 91.984375 -125.375 C 92.316406 -125.539062 92.484375 -125.789062 92.484375 -126.125 C 92.160156 -126.125 91.832031 -126.207031 91.5 -126.375 C 91.175781 -126.539062 90.679688 -126.625 90.015625 -126.625 Z M 60.34375 -123.65625 C 61 -123.65625 61.328125 -123.984375 61.328125 -124.640625 C 61.328125 -124.640625 61.242188 -124.722656 61.078125 -124.890625 C 60.921875 -125.054688 60.675781 -125.140625 60.34375 -125.140625 C 59.6875 -125.140625 59.359375 -124.804688 59.359375 -124.140625 C 59.359375 -123.816406 59.519531 -123.65625 59.84375 -123.65625 C 60.175781 -123.65625 60.34375 -123.65625 60.34375 -123.65625 Z M 127.609375 -120.1875 C 127.609375 -120.519531 127.113281 -120.6875 126.125 -120.6875 C 125.132812 -120.6875 124.3125 -121.015625 123.65625 -121.671875 L 123.65625 -122.65625 C 124.96875 -123.976562 124.800781 -124.472656 123.15625 -124.140625 C 122.820312 -123.816406 122.328125 -123.65625 121.671875 -123.65625 C 121.015625 -123.65625 120.359375 -123.488281 119.703125 -123.15625 C 119.367188 -123.15625 119.117188 -122.988281 118.953125 -122.65625 C 118.785156 -122.332031 118.867188 -122.171875 119.203125 -122.171875 C 120.847656 -121.503906 121.585938 -120.675781 121.421875 -119.6875 C 121.253906 -118.707031 120.84375 -117.722656 120.1875 -116.734375 C 120.519531 -116.734375 120.765625 -116.8125 120.921875 -116.96875 C 121.085938 -117.132812 121.335938 -117.21875 121.671875 -117.21875 C 122.328125 -117.550781 122.984375 -117.878906 123.640625 -118.203125 C 124.304688 -118.535156 124.804688 -118.867188 125.140625 -119.203125 C 125.796875 -119.859375 126.535156 -119.859375 127.359375 -119.203125 C 128.179688 -118.546875 128.265625 -118.875 127.609375 -120.1875 Z M 116.234375 -112.28125 C 116.234375 -111.613281 116.726562 -111.28125 117.71875 -111.28125 C 120.019531 -111.945312 121.171875 -111.289062 121.171875 -109.3125 C 121.835938 -108.320312 122.5 -107.828125 123.15625 -107.828125 C 124.476562 -108.148438 124.804688 -109.140625 124.140625 -110.796875 C 124.804688 -110.796875 125.46875 -110.710938 126.125 -110.546875 C 126.78125 -110.378906 126.945312 -110.957031 126.625 -112.28125 C 126.625 -112.9375 126.703125 -113.675781 126.859375 -114.5 C 127.023438 -115.320312 126.78125 -115.734375 126.125 -115.734375 C 125.46875 -116.066406 125.054688 -115.738281 124.890625 -114.75 C 124.722656 -113.757812 124.472656 -112.9375 124.140625 -112.28125 L 124.140625 -110.796875 C 123.148438 -110.796875 122.65625 -111.125 122.65625 -111.78125 C 123.320312 -113.101562 123.238281 -114.007812 122.40625 -114.5 C 121.582031 -115 120.84375 -115.742188 120.1875 -116.734375 L 120.1875 -116.234375 C 119.863281 -116.890625 119.535156 -117.546875 119.203125 -118.203125 C 118.867188 -118.867188 118.046875 -118.875 116.734375 -118.21875 C 115.742188 -117.882812 115 -117.878906 114.5 -118.203125 C 114.007812 -118.535156 113.925781 -119.363281 114.25 -120.6875 C 115.570312 -120.6875 116.234375 -121.015625 116.234375 -121.671875 C 115.578125 -123.316406 114.585938 -123.484375 113.265625 -122.171875 C 113.265625 -122.171875 113.59375 -121.675781 114.25 -120.6875 C 113.59375 -120.351562 112.769531 -120.1875 111.78125 -120.1875 C 110.789062 -120.1875 109.800781 -120.023438 108.8125 -119.703125 C 107.164062 -119.703125 106.175781 -119.207031 105.84375 -118.21875 C 105.1875 -116.238281 103.703125 -115.742188 101.390625 -116.734375 C 101.066406 -117.390625 100.410156 -117.222656 99.421875 -116.234375 C 99.421875 -115.578125 99.75 -115.25 100.40625 -115.25 C 101.726562 -114.582031 102.390625 -113.921875 102.390625 -113.265625 C 102.710938 -111.941406 103.367188 -111.113281 104.359375 -110.78125 C 105.347656 -110.457031 106.335938 -110.128906 107.328125 -109.796875 C 106.335938 -107.492188 104.359375 -106.503906 101.390625 -106.828125 C 101.390625 -107.492188 101.0625 -108.15625 100.40625 -108.8125 C 99.75 -109.46875 99.582031 -110.207031 99.90625 -111.03125 C 100.238281 -111.863281 99.910156 -112.28125 98.921875 -112.28125 C 98.585938 -112.28125 98.421875 -111.863281 98.421875 -111.03125 C 98.421875 -110.207031 98.09375 -109.46875 97.4375 -108.8125 C 97.101562 -108.476562 96.769531 -108.0625 96.4375 -107.5625 C 96.113281 -107.070312 95.625 -106.992188 94.96875 -107.328125 C 94.632812 -107.660156 94.960938 -108.320312 95.953125 -109.3125 C 95.953125 -110.300781 95.953125 -110.796875 95.953125 -110.796875 C 95.296875 -111.453125 94.96875 -111.285156 94.96875 -110.296875 C 94.632812 -109.960938 94.300781 -109.46875 93.96875 -108.8125 C 93.644531 -108.15625 93.316406 -107.492188 92.984375 -106.828125 C 92.328125 -105.515625 92.820312 -104.859375 94.46875 -104.859375 C 96.445312 -104.523438 97.4375 -105.84375 97.4375 -108.8125 C 98.09375 -108.476562 98.75 -108.144531 99.40625 -107.8125 C 100.070312 -107.488281 100.734375 -107.160156 101.390625 -106.828125 C 100.398438 -102.878906 101.390625 -100.242188 104.359375 -98.921875 C 104.359375 -97.273438 103.863281 -96.453125 102.875 -96.453125 C 101.5625 -95.785156 101.066406 -94.957031 101.390625 -93.96875 C 102.054688 -92.320312 103.378906 -91.828125 105.359375 -92.484375 C 106.335938 -92.484375 106.828125 -93.3125 106.828125 -94.96875 C 106.503906 -95.625 106.257812 -96.363281 106.09375 -97.1875 C 105.925781 -98.007812 105.347656 -98.585938 104.359375 -98.921875 C 104.359375 -99.253906 104.601562 -99.582031 105.09375 -99.90625 C 105.59375 -100.238281 105.679688 -100.570312 105.359375 -100.90625 C 103.046875 -102.21875 103.207031 -103.207031 105.84375 -103.875 C 107.820312 -104.863281 108.316406 -106.835938 107.328125 -109.796875 C 108.316406 -110.785156 108.976562 -110.953125 109.3125 -110.296875 C 110.957031 -108.316406 111.78125 -108.644531 111.78125 -111.28125 C 111.445312 -112.9375 112.019531 -114.257812 113.5 -115.25 C 114.988281 -116.238281 116.226562 -116.398438 117.21875 -115.734375 C 118.207031 -115.734375 118.703125 -115.238281 118.703125 -114.25 C 118.703125 -112.9375 118.375 -112.28125 117.71875 -112.28125 C 117.382812 -112.28125 117.132812 -112.441406 116.96875 -112.765625 C 116.8125 -113.097656 116.566406 -112.9375 116.234375 -112.28125 Z M 93.96875 -120.6875 C 96.28125 -122 96.613281 -121.503906 94.96875 -119.203125 C 94.632812 -118.867188 94.628906 -118.375 94.953125 -117.71875 C 95.285156 -117.0625 95.617188 -116.734375 95.953125 -116.734375 C 97.273438 -116.734375 98.59375 -117.226562 99.90625 -118.21875 C 100.570312 -118.21875 100.570312 -118.875 99.90625 -120.1875 C 99.582031 -121.175781 98.675781 -121.832031 97.1875 -122.15625 C 95.707031 -122.488281 94.472656 -122.328125 93.484375 -121.671875 C 92.160156 -121.671875 91.5 -121.503906 91.5 -121.171875 C 91.832031 -120.515625 92.242188 -120.269531 92.734375 -120.4375 C 93.234375 -120.601562 93.644531 -120.6875 93.96875 -120.6875 Z M 49.953125 -118.703125 C 49.953125 -117.390625 50.941406 -116.734375 52.921875 -116.734375 C 53.910156 -116.734375 54.40625 -117.0625 54.40625 -117.71875 C 54.070312 -118.375 53.65625 -118.945312 53.15625 -119.4375 C 52.664062 -119.9375 52.09375 -120.351562 51.4375 -120.6875 C 50.445312 -120.6875 49.953125 -120.023438 49.953125 -118.703125 Z M 136.015625 -118.703125 C 135.679688 -118.703125 135.1875 -118.867188 134.53125 -119.203125 C 133.875 -119.535156 133.378906 -119.207031 133.046875 -118.21875 C 133.046875 -117.882812 133.707031 -117.71875 135.03125 -117.71875 C 135.6875 -117.71875 136.425781 -117.632812 137.25 -117.46875 C 138.070312 -117.300781 138.320312 -117.710938 138 -118.703125 C 138 -119.367188 137.75 -119.453125 137.25 -118.953125 C 136.757812 -118.460938 136.347656 -118.378906 136.015625 -118.703125 Z M 92 -112.28125 C 92.65625 -112.28125 92.816406 -112.609375 92.484375 -113.265625 C 92.160156 -113.921875 92.160156 -114.414062 92.484375 -114.75 C 93.148438 -116.394531 92.820312 -117.382812 91.5 -117.71875 C 90.84375 -117.71875 90.515625 -117.46875 90.515625 -116.96875 C 90.515625 -116.476562 90.347656 -115.90625 90.015625 -115.25 C 89.691406 -114.582031 89.859375 -113.921875 90.515625 -113.265625 C 91.171875 -112.609375 91.664062 -112.28125 92 -112.28125 Z M 82.59375 -114.75 C 83.257812 -114.75 83.59375 -115.078125 83.59375 -115.734375 C 83.257812 -115.734375 82.84375 -116.0625 82.34375 -116.71875 C 81.851562 -117.382812 81.28125 -117.550781 80.625 -117.21875 C 80.289062 -117.21875 80.125 -116.890625 80.125 -116.234375 C 80.125 -115.242188 80.945312 -114.75 82.59375 -114.75 Z M 68.25 -108.8125 C 68.582031 -109.46875 68.582031 -110.457031 68.25 -111.78125 C 67.925781 -113.101562 68.914062 -113.429688 71.21875 -112.765625 C 71.550781 -112.765625 71.71875 -113.097656 71.71875 -113.765625 C 71.71875 -114.753906 71.390625 -115.25 70.734375 -115.25 C 69.742188 -115.570312 68.753906 -115.320312 67.765625 -114.5 C 66.773438 -113.675781 66.28125 -112.769531 66.28125 -111.78125 C 66.28125 -110.457031 66.441406 -109.46875 66.765625 -108.8125 C 66.765625 -107.488281 67.097656 -106.828125 67.765625 -106.828125 C 68.421875 -106.828125 68.582031 -107.070312 68.25 -107.5625 C 67.925781 -108.0625 67.925781 -108.476562 68.25 -108.8125 Z M 31.65625 -115.25 C 31 -115.25 30.671875 -114.914062 30.671875 -114.25 C 30.671875 -113.257812 31.164062 -112.765625 32.15625 -112.765625 C 32.476562 -112.765625 32.640625 -113.097656 32.640625 -113.765625 C 32.640625 -114.753906 32.3125 -115.25 31.65625 -115.25 Z M 61.828125 -115.25 C 61.171875 -115.25 60.84375 -114.753906 60.84375 -113.765625 C 61.5 -112.773438 62.15625 -112.28125 62.8125 -112.28125 C 63.46875 -112.9375 63.632812 -113.429688 63.3125 -113.765625 C 63.3125 -114.753906 62.816406 -115.25 61.828125 -115.25 Z M 136.515625 -112.765625 C 136.515625 -112.109375 136.84375 -112.109375 137.5 -112.765625 C 137.5 -113.429688 137.171875 -114.09375 136.515625 -114.75 C 135.847656 -114.75 135.515625 -114.582031 135.515625 -114.25 C 135.515625 -113.925781 135.847656 -113.429688 136.515625 -112.765625 Z M 35.609375 -113.765625 C 34.953125 -113.097656 34.625 -112.601562 34.625 -112.28125 C 34.625 -111.289062 34.953125 -110.796875 35.609375 -110.796875 C 36.597656 -111.785156 37.09375 -112.28125 37.09375 -112.28125 C 37.09375 -113.269531 36.597656 -113.765625 35.609375 -113.765625 Z M 50.453125 -107.328125 C 50.453125 -108.316406 50.285156 -109.140625 49.953125 -109.796875 C 50.609375 -109.796875 51.101562 -109.710938 51.4375 -109.546875 C 51.769531 -109.390625 52.097656 -109.640625 52.421875 -110.296875 C 52.421875 -110.628906 52.09375 -111.453125 51.4375 -112.765625 C 50.78125 -111.453125 50.453125 -110.796875 50.453125 -110.796875 C 50.453125 -110.460938 50.367188 -110.210938 50.203125 -110.046875 C 50.035156 -109.878906 49.953125 -109.796875 49.953125 -109.796875 C 48.960938 -109.472656 48.140625 -109.722656 47.484375 -110.546875 C 46.828125 -111.367188 46.003906 -111.453125 45.015625 -110.796875 C 45.671875 -110.128906 46.988281 -109.140625 48.96875 -107.828125 L 48.96875 -107.328125 C 48.96875 -106.671875 49.128906 -106.34375 49.453125 -106.34375 C 50.117188 -106.34375 50.453125 -106.671875 50.453125 -107.328125 Z M 56.875 -107.828125 C 56.875 -108.484375 56.710938 -108.976562 56.390625 -109.3125 C 55.722656 -109.3125 55.390625 -108.976562 55.390625 -108.3125 C 55.390625 -107.320312 55.722656 -106.828125 56.390625 -106.828125 C 56.710938 -106.828125 56.875 -107.160156 56.875 -107.828125 Z M 60.84375 -93.484375 C 62.488281 -93.484375 63.804688 -93.644531 64.796875 -93.96875 C 65.785156 -93.96875 66.523438 -94.460938 67.015625 -95.453125 C 67.515625 -96.441406 67.429688 -97.101562 66.765625 -97.4375 C 65.453125 -99.082031 64.710938 -100.8125 64.546875 -102.625 C 64.378906 -104.445312 63.800781 -106.179688 62.8125 -107.828125 C 62.8125 -107.828125 62.8125 -107.988281 62.8125 -108.3125 C 62.8125 -108.644531 62.648438 -108.8125 62.328125 -108.8125 C 61.660156 -108.476562 61.328125 -107.984375 61.328125 -107.328125 C 61.003906 -106.671875 61.085938 -106.007812 61.578125 -105.34375 C 62.078125 -104.6875 61.664062 -104.195312 60.34375 -103.875 C 59.351562 -103.207031 59.1875 -102.710938 59.84375 -102.390625 C 61.820312 -101.066406 62.976562 -99.742188 63.3125 -98.421875 C 63.96875 -97.765625 63.96875 -97.109375 63.3125 -96.453125 C 62.976562 -96.117188 62.484375 -96.28125 61.828125 -96.9375 C 61.171875 -98.257812 60.507812 -98.257812 59.84375 -96.9375 C 59.1875 -95.625 59.023438 -94.632812 59.359375 -93.96875 C 59.679688 -93.644531 60.175781 -93.484375 60.84375 -93.484375 Z M 38.578125 -108.3125 C 37.921875 -108.3125 37.59375 -107.984375 37.59375 -107.328125 C 38.582031 -105.679688 39.40625 -104.859375 40.0625 -104.859375 C 40.71875 -104.859375 41.046875 -105.1875 41.046875 -105.84375 C 40.390625 -107.488281 39.566406 -108.3125 38.578125 -108.3125 Z M 87.546875 -104.359375 C 88.203125 -104.359375 88.695312 -104.601562 89.03125 -105.09375 C 89.363281 -105.59375 89.691406 -106.007812 90.015625 -106.34375 C 90.015625 -107 89.6875 -107.328125 89.03125 -107.328125 C 88.039062 -106.992188 87.378906 -106.335938 87.046875 -105.359375 C 87.046875 -104.691406 87.210938 -104.359375 87.546875 -104.359375 Z M 26.703125 -102.875 C 26.378906 -102.875 26.132812 -102.707031 25.96875 -102.375 C 25.800781 -102.050781 25.882812 -101.722656 26.21875 -101.390625 C 26.875 -100.734375 27.203125 -101.066406 27.203125 -102.390625 C 27.859375 -103.046875 28.1875 -103.539062 28.1875 -103.875 C 29.84375 -103.207031 31.660156 -103.039062 33.640625 -103.375 C 35.609375 -103.375 36.59375 -103.703125 36.59375 -104.359375 C 36.59375 -105.347656 36.179688 -105.84375 35.359375 -105.84375 C 34.535156 -105.84375 33.960938 -105.679688 33.640625 -105.359375 C 32.972656 -104.691406 32.0625 -104.6875 30.90625 -105.34375 C 29.757812 -106.007812 28.851562 -105.519531 28.1875 -103.875 Z M 109.796875 -104.859375 C 109.796875 -104.203125 109.960938 -104.035156 110.296875 -104.359375 C 110.953125 -104.359375 111.28125 -104.523438 111.28125 -104.859375 C 111.28125 -105.191406 110.953125 -105.359375 110.296875 -105.359375 C 109.960938 -105.359375 109.796875 -105.273438 109.796875 -105.109375 C 109.796875 -104.941406 109.796875 -104.859375 109.796875 -104.859375 Z M 80.625 -102.390625 C 81.28125 -102.390625 81.609375 -102.882812 81.609375 -103.875 C 81.609375 -104.53125 81.28125 -104.859375 80.625 -104.859375 C 79.957031 -104.203125 79.625 -103.707031 79.625 -103.375 C 79.625 -102.71875 79.957031 -102.390625 80.625 -102.390625 Z M 46 -103.875 C 45.34375 -103.875 44.519531 -103.457031 43.53125 -102.625 C 42.539062 -101.800781 42.046875 -101.0625 42.046875 -100.40625 C 42.703125 -99.75 43.359375 -99.421875 44.015625 -99.421875 C 44.679688 -100.078125 45.507812 -100.320312 46.5 -100.15625 C 47.488281 -99.988281 48.144531 -100.398438 48.46875 -101.390625 C 48.800781 -102.054688 48.632812 -102.550781 47.96875 -102.875 C 47.3125 -103.207031 46.65625 -103.539062 46 -103.875 Z M 91.5 -100.40625 C 92.15625 -100.40625 92.484375 -100.734375 92.484375 -101.390625 C 92.484375 -102.054688 91.992188 -102.390625 91.015625 -102.390625 C 90.347656 -102.390625 90.015625 -102.222656 90.015625 -101.890625 C 90.679688 -100.898438 91.175781 -100.40625 91.5 -100.40625 Z M 140.96875 -102.390625 C 140.300781 -102.390625 139.96875 -102.054688 139.96875 -101.390625 C 139.96875 -100.734375 140.300781 -100.40625 140.96875 -100.40625 C 141.957031 -100.40625 142.453125 -100.734375 142.453125 -101.390625 C 142.453125 -102.054688 141.957031 -102.390625 140.96875 -102.390625 Z M 111.28125 -98.421875 C 111.613281 -99.085938 112.273438 -99.335938 113.265625 -99.171875 C 114.253906 -99.003906 114.914062 -99.414062 115.25 -100.40625 C 115.25 -100.738281 115.164062 -100.984375 115 -101.140625 C 114.832031 -101.304688 114.75 -101.554688 114.75 -101.890625 L 111.28125 -100.40625 C 110.957031 -100.40625 110.796875 -100.320312 110.796875 -100.15625 C 110.796875 -99.988281 110.796875 -99.90625 110.796875 -99.90625 C 110.460938 -99.582031 110.296875 -99.335938 110.296875 -99.171875 C 110.296875 -99.003906 110.296875 -98.921875 110.296875 -98.921875 C 110.628906 -98.585938 110.957031 -98.421875 111.28125 -98.421875 Z M 35.125 -98.421875 C 35.445312 -98.753906 35.609375 -99.414062 35.609375 -100.40625 C 35.609375 -101.0625 35.445312 -101.390625 35.125 -101.390625 C 34.457031 -101.066406 34.125 -100.410156 34.125 -99.421875 C 34.457031 -99.421875 34.625 -99.253906 34.625 -98.921875 C 34.625 -98.585938 34.789062 -98.421875 35.125 -98.421875 Z M 71.71875 -96.9375 C 73.363281 -97.925781 74.1875 -98.753906 74.1875 -99.421875 C 74.1875 -100.078125 73.859375 -100.40625 73.203125 -100.40625 C 72.546875 -100.40625 72.132812 -100.070312 71.96875 -99.40625 C 71.800781 -98.75 71.550781 -98.257812 71.21875 -97.9375 C 71.21875 -96.945312 71.382812 -96.613281 71.71875 -96.9375 Z M 132.0625 -96.453125 C 133.382812 -96.453125 134.046875 -96.613281 134.046875 -96.9375 C 134.046875 -97.601562 133.710938 -98.265625 133.046875 -98.921875 C 132.390625 -99.578125 131.734375 -99.578125 131.078125 -98.921875 C 130.742188 -98.585938 130.328125 -98.335938 129.828125 -98.171875 C 129.335938 -98.015625 129.09375 -97.601562 129.09375 -96.9375 L 128.59375 -97.4375 C 127.9375 -97.769531 127.691406 -98.429688 127.859375 -99.421875 C 128.023438 -100.410156 127.613281 -100.570312 126.625 -99.90625 C 125.300781 -99.25 124.96875 -98.671875 125.625 -98.171875 C 126.289062 -97.679688 126.785156 -97.109375 127.109375 -96.453125 L 127.109375 -95.453125 C 128.429688 -94.796875 129.09375 -95.289062 129.09375 -96.9375 C 129.75 -96.613281 130.738281 -96.453125 132.0625 -96.453125 Z M 53.421875 -97.4375 L 55.390625 -95.953125 C 56.054688 -95.296875 56.390625 -95.460938 56.390625 -96.453125 C 56.390625 -97.109375 56.140625 -97.4375 55.640625 -97.4375 C 55.148438 -97.4375 54.738281 -97.601562 54.40625 -97.9375 C 54.070312 -98.257812 53.738281 -98.335938 53.40625 -98.171875 C 53.082031 -98.015625 53.085938 -97.769531 53.421875 -97.4375 Z M 122.65625 -95.953125 C 123.976562 -95.296875 124.640625 -95.789062 124.640625 -97.4375 C 124.304688 -97.4375 124.140625 -97.519531 124.140625 -97.6875 C 124.140625 -97.851562 123.976562 -97.9375 123.65625 -97.9375 C 122.332031 -97.269531 121.503906 -96.773438 121.171875 -96.453125 C 121.171875 -96.117188 121.664062 -95.953125 122.65625 -95.953125 Z M 45.5 -80.125 C 46.164062 -80.457031 46.742188 -81.035156 47.234375 -81.859375 C 47.734375 -82.679688 48.144531 -83.421875 48.46875 -84.078125 C 48.46875 -84.742188 47.972656 -85.078125 46.984375 -85.078125 C 47.316406 -86.066406 47.234375 -86.972656 46.734375 -87.796875 C 46.242188 -88.617188 45.671875 -89.359375 45.015625 -90.015625 C 44.347656 -91.660156 43.519531 -93.222656 42.53125 -94.703125 C 41.539062 -96.191406 39.726562 -96.609375 37.09375 -95.953125 C 36.757812 -95.953125 36.425781 -96.035156 36.09375 -96.203125 C 35.769531 -96.367188 35.28125 -96.453125 34.625 -96.453125 C 33.300781 -96.453125 32.640625 -96.453125 32.640625 -96.453125 C 32.316406 -95.128906 31.660156 -93.972656 30.671875 -92.984375 C 29.679688 -91.992188 29.347656 -90.84375 29.671875 -89.53125 C 30.335938 -88.207031 31.164062 -87.707031 32.15625 -88.03125 C 33.144531 -88.363281 33.96875 -88.367188 34.625 -88.046875 L 35.609375 -88.046875 C 38.910156 -87.054688 39.570312 -85.078125 37.59375 -82.109375 C 37.59375 -81.773438 37.425781 -81.609375 37.09375 -81.609375 C 36.757812 -81.609375 36.757812 -81.441406 37.09375 -81.109375 L 37.59375 -81.109375 C 38.90625 -82.097656 40.300781 -82.675781 41.78125 -82.84375 C 43.269531 -83.007812 44.507812 -83.753906 45.5 -85.078125 C 45.175781 -84.410156 44.847656 -83.828125 44.515625 -83.328125 C 44.179688 -82.835938 43.851562 -82.265625 43.53125 -81.609375 C 42.863281 -80.285156 42.863281 -79.460938 43.53125 -79.140625 C 43.851562 -78.804688 44.507812 -79.132812 45.5 -80.125 Z M 140.96875 -94.46875 C 140.96875 -95.125 140.140625 -95.785156 138.484375 -96.453125 C 137.828125 -96.453125 137.5 -96.117188 137.5 -95.453125 C 137.5 -94.140625 138.160156 -93.316406 139.484375 -92.984375 C 140.472656 -92.984375 140.96875 -93.476562 140.96875 -94.46875 Z M 145.421875 -95.453125 C 145.085938 -95.128906 144.585938 -94.882812 143.921875 -94.71875 C 143.265625 -94.550781 142.9375 -94.140625 142.9375 -93.484375 C 142.9375 -92.492188 143.597656 -92 144.921875 -92 C 144.921875 -92.988281 145.332031 -93.316406 146.15625 -92.984375 C 146.976562 -92.648438 147.554688 -92.816406 147.890625 -93.484375 C 147.890625 -93.804688 148.132812 -93.96875 148.625 -93.96875 C 149.125 -93.96875 149.039062 -94.132812 148.375 -94.46875 C 147.0625 -95.789062 146.078125 -96.117188 145.421875 -95.453125 Z M 94.46875 -92 C 95.125 -92.320312 95.863281 -92.566406 96.6875 -92.734375 C 97.519531 -92.898438 98.097656 -93.3125 98.421875 -93.96875 C 98.421875 -94.957031 98.09375 -95.453125 97.4375 -95.453125 C 96.113281 -95.128906 94.957031 -94.472656 93.96875 -93.484375 C 93.3125 -92.816406 92.984375 -92.320312 92.984375 -92 C 93.316406 -91.664062 93.5625 -91.582031 93.71875 -91.75 C 93.882812 -91.914062 94.132812 -92 94.46875 -92 Z M 51.4375 -87.046875 C 52.425781 -86.722656 52.921875 -87.054688 52.921875 -88.046875 C 52.921875 -88.703125 52.257812 -89.769531 50.9375 -91.25 C 49.625 -92.738281 48.640625 -93.484375 47.984375 -93.484375 C 47.316406 -93.484375 46.984375 -93.148438 46.984375 -92.484375 C 46.660156 -91.828125 47.15625 -90.835938 48.46875 -89.515625 C 49.789062 -88.203125 50.78125 -87.378906 51.4375 -87.046875 Z M 35.125 -92 C 36.4375 -92.988281 37.585938 -92.820312 38.578125 -91.5 C 39.566406 -90.507812 39.894531 -89.6875 39.5625 -89.03125 C 39.5625 -89.03125 38.738281 -89.03125 37.09375 -89.03125 C 36.4375 -89.6875 35.78125 -90.015625 35.125 -90.015625 C 33.144531 -90.015625 32.316406 -90.675781 32.640625 -92 C 32.972656 -93.3125 33.382812 -93.71875 33.875 -93.21875 C 34.375 -92.726562 34.789062 -92.320312 35.125 -92 Z M 65.28125 -86.5625 C 65.945312 -86.226562 66.609375 -86.554688 67.265625 -87.546875 C 67.265625 -88.203125 67.015625 -88.613281 66.515625 -88.78125 C 66.023438 -88.945312 65.945312 -89.195312 66.28125 -89.53125 C 67.59375 -91.5 67.097656 -92.484375 64.796875 -92.484375 C 64.128906 -92.160156 63.796875 -91.664062 63.796875 -91 C 63.796875 -90.34375 63.796875 -89.6875 63.796875 -89.03125 C 64.460938 -87.707031 64.957031 -86.882812 65.28125 -86.5625 Z M 131.078125 -89.53125 C 131.734375 -90.1875 132.472656 -90.265625 133.296875 -89.765625 C 134.117188 -89.273438 134.859375 -89.195312 135.515625 -89.53125 L 135.515625 -90.515625 L 132.5625 -92.484375 C 131.570312 -92.484375 130.742188 -91.828125 130.078125 -90.515625 C 130.078125 -89.859375 130.410156 -89.53125 131.078125 -89.53125 Z M 58.859375 -86.5625 C 60.179688 -86.882812 60.84375 -87.875 60.84375 -89.53125 C 60.84375 -90.84375 60.347656 -91.171875 59.359375 -90.515625 C 59.023438 -90.179688 58.859375 -89.6875 58.859375 -89.03125 C 58.859375 -88.375 58.53125 -87.710938 57.875 -87.046875 C 57.875 -87.046875 57.953125 -86.960938 58.109375 -86.796875 C 58.273438 -86.640625 58.523438 -86.5625 58.859375 -86.5625 Z M 128.59375 -86.5625 C 128.59375 -87.875 128.097656 -88.53125 127.109375 -88.53125 C 126.453125 -88.53125 126.125 -88.203125 126.125 -87.546875 C 126.125 -86.222656 126.785156 -85.5625 128.109375 -85.5625 C 128.429688 -85.5625 128.59375 -85.894531 128.59375 -86.5625 Z M 24.734375 -81.109375 C 26.046875 -80.453125 27.691406 -79.796875 29.671875 -79.140625 C 30.003906 -79.460938 30.414062 -79.707031 30.90625 -79.875 C 31.40625 -80.039062 31.820312 -80.289062 32.15625 -80.625 C 32.8125 -81.28125 32.148438 -81.609375 30.171875 -81.609375 C 29.179688 -82.265625 28.6875 -83.085938 28.6875 -84.078125 C 29.34375 -86.390625 28.679688 -87.546875 26.703125 -87.546875 C 25.390625 -87.546875 24.894531 -87.050781 25.21875 -86.0625 C 25.550781 -85.070312 25.550781 -84.25 25.21875 -83.59375 C 25.21875 -83.257812 24.96875 -82.925781 24.46875 -82.59375 C 23.976562 -82.269531 24.066406 -81.773438 24.734375 -81.109375 Z M 138.984375 -85.5625 C 139.316406 -85.5625 139.484375 -85.894531 139.484375 -86.5625 C 139.484375 -87.550781 139.148438 -87.710938 138.484375 -87.046875 C 137.828125 -87.046875 137.5 -86.71875 137.5 -86.0625 C 137.5 -85.726562 137.992188 -85.5625 138.984375 -85.5625 Z M 35.125 -83.09375 C 36.101562 -83.09375 36.265625 -83.421875 35.609375 -84.078125 C 34.953125 -85.398438 34.296875 -85.894531 33.640625 -85.5625 C 33.304688 -85.5625 33.140625 -85.394531 33.140625 -85.0625 C 33.140625 -84.738281 33.140625 -84.578125 33.140625 -84.578125 Z M 122.65625 -80.625 C 122.988281 -81.28125 122.90625 -81.691406 122.40625 -81.859375 C 121.914062 -82.023438 121.503906 -82.269531 121.171875 -82.59375 C 120.515625 -82.925781 120.1875 -82.597656 120.1875 -81.609375 C 120.84375 -81.273438 121.085938 -80.859375 120.921875 -80.359375 C 120.765625 -79.867188 121.015625 -79.460938 121.671875 -79.140625 C 122.003906 -79.140625 122.332031 -79.632812 122.65625 -80.625 Z M 127.109375 -82.59375 C 126.117188 -82.925781 125.296875 -82.597656 124.640625 -81.609375 C 124.640625 -79.960938 124.96875 -79.140625 125.625 -79.140625 C 127.28125 -78.804688 128.351562 -78.390625 128.84375 -77.890625 C 129.34375 -77.398438 129.097656 -76.332031 128.109375 -74.6875 C 127.773438 -74.6875 127.609375 -74.519531 127.609375 -74.1875 C 127.609375 -73.863281 127.773438 -73.703125 128.109375 -73.703125 C 128.765625 -73.367188 129.585938 -73.035156 130.578125 -72.703125 C 131.566406 -72.378906 132.390625 -72.21875 133.046875 -72.21875 C 133.710938 -72.21875 134.046875 -72.628906 134.046875 -73.453125 C 134.046875 -74.273438 134.207031 -74.851562 134.53125 -75.1875 L 134.53125 -77.65625 C 134.53125 -78.3125 134.53125 -79.132812 134.53125 -80.125 C 134.53125 -81.113281 134.035156 -81.609375 133.046875 -81.609375 C 131.066406 -81.273438 129.085938 -81.601562 127.109375 -82.59375 Z M 158.765625 -82.109375 C 158.441406 -81.773438 158.113281 -81.523438 157.78125 -81.359375 C 157.445312 -81.191406 157.445312 -80.78125 157.78125 -80.125 L 158.28125 -79.625 C 158.9375 -79.957031 159.265625 -80.617188 159.265625 -81.609375 C 159.265625 -81.941406 159.097656 -82.109375 158.765625 -82.109375 Z M 139.96875 -76.671875 L 138.984375 -77.15625 C 137.660156 -76.5 137 -75.675781 137 -74.6875 C 137 -74.351562 137.492188 -74.1875 138.484375 -74.1875 C 139.148438 -74.519531 139.484375 -74.929688 139.484375 -75.421875 C 139.484375 -75.921875 139.644531 -76.335938 139.96875 -76.671875 Z M 31.65625 -72.703125 C 32.644531 -72.703125 33.140625 -73.195312 33.140625 -74.1875 C 33.140625 -74.851562 32.890625 -75.1875 32.390625 -75.1875 C 31.898438 -75.1875 31.488281 -75.347656 31.15625 -75.671875 C 30.164062 -75.671875 29.671875 -75.34375 29.671875 -74.6875 C 29.671875 -73.363281 30.332031 -72.703125 31.65625 -72.703125 Z M 56.390625 -70.734375 C 57.378906 -70.734375 57.875 -71.0625 57.875 -71.71875 C 57.875 -72.375 57.707031 -72.703125 57.375 -72.703125 C 56.382812 -72.378906 55.890625 -71.882812 55.890625 -71.21875 C 55.554688 -70.894531 55.472656 -70.648438 55.640625 -70.484375 C 55.804688 -70.316406 56.054688 -70.398438 56.390625 -70.734375 Z M 44.515625 -68.75 C 44.515625 -69.40625 44.679688 -69.734375 45.015625 -69.734375 C 45.015625 -70.722656 44.519531 -71.21875 43.53125 -71.21875 C 43.195312 -71.21875 42.695312 -71.21875 42.03125 -71.21875 C 41.375 -71.21875 40.71875 -70.890625 40.0625 -70.234375 L 40.0625 -68.75 C 40.0625 -68.75 40.390625 -68.421875 41.046875 -67.765625 C 41.710938 -68.085938 41.960938 -68.492188 41.796875 -68.984375 C 41.628906 -69.484375 41.875 -69.898438 42.53125 -70.234375 C 43.195312 -70.234375 43.53125 -69.898438 43.53125 -69.234375 C 43.53125 -68.578125 43.859375 -68.414062 44.515625 -68.75 Z M 117.71875 -67.765625 C 118.375 -68.421875 118.703125 -68.914062 118.703125 -69.25 C 118.703125 -69.90625 118.375 -70.234375 117.71875 -70.234375 C 117.0625 -69.898438 116.734375 -69.238281 116.734375 -68.25 C 117.390625 -67.59375 117.71875 -67.429688 117.71875 -67.765625 Z M 135.03125 -68.25 C 135.03125 -69.238281 134.703125 -69.734375 134.046875 -69.734375 C 133.054688 -69.410156 132.5625 -68.585938 132.5625 -67.265625 C 131.894531 -66.609375 132.222656 -66.28125 133.546875 -66.28125 C 134.535156 -66.28125 135.03125 -66.9375 135.03125 -68.25 Z M 144.421875 -68.75 C 144.097656 -69.082031 143.6875 -69 143.1875 -68.5 C 142.695312 -68.007812 142.613281 -67.597656 142.9375 -67.265625 C 143.601562 -65.285156 144.429688 -63.96875 145.421875 -63.3125 C 146.078125 -62.976562 146.648438 -63.054688 147.140625 -63.546875 C 147.640625 -64.046875 148.050781 -64.460938 148.375 -64.796875 C 148.707031 -65.453125 149.117188 -65.863281 149.609375 -66.03125 C 150.109375 -66.195312 150.523438 -66.441406 150.859375 -66.765625 C 151.515625 -66.765625 151.84375 -67.097656 151.84375 -67.765625 C 151.507812 -68.753906 150.847656 -69.25 149.859375 -69.25 C 149.535156 -69.25 149.125 -69.328125 148.625 -69.484375 C 148.132812 -69.648438 147.5625 -69.40625 146.90625 -68.75 C 146.570312 -66.769531 145.742188 -66.769531 144.421875 -68.75 Z M 129.09375 -63.3125 C 129.75 -63.632812 130.078125 -64.289062 130.078125 -65.28125 C 130.078125 -65.945312 129.914062 -66.28125 129.59375 -66.28125 C 128.601562 -65.945312 128.109375 -65.285156 128.109375 -64.296875 C 128.109375 -64.296875 128.4375 -63.96875 129.09375 -63.3125 Z M 143.9375 -57.875 C 143.269531 -59.1875 142.441406 -59.515625 141.453125 -58.859375 C 141.128906 -58.523438 140.71875 -58.441406 140.21875 -58.609375 C 139.726562 -58.773438 139.148438 -58.691406 138.484375 -58.359375 C 136.835938 -57.703125 136.015625 -58.363281 136.015625 -60.34375 C 136.015625 -61 136.835938 -61.328125 138.484375 -61.328125 C 138.484375 -61.328125 138.976562 -61.328125 139.96875 -61.328125 C 140.957031 -61.328125 141.617188 -61.660156 141.953125 -62.328125 C 141.953125 -62.984375 141.785156 -63.3125 141.453125 -63.3125 C 141.128906 -63.3125 140.96875 -63.472656 140.96875 -63.796875 C 139.3125 -65.773438 137.828125 -66.109375 136.515625 -64.796875 C 135.847656 -64.128906 135.019531 -63.46875 134.03125 -62.8125 C 133.050781 -62.15625 132.722656 -61.003906 133.046875 -59.359375 C 134.035156 -56.710938 133.378906 -55.882812 131.078125 -56.875 C 130.085938 -57.539062 129.59375 -57.210938 129.59375 -55.890625 C 129.59375 -54.898438 129.34375 -54.40625 128.84375 -54.40625 C 128.351562 -54.40625 127.773438 -54.238281 127.109375 -53.90625 C 126.785156 -53.582031 126.375 -53.582031 125.875 -53.90625 C 125.382812 -54.238281 124.972656 -54.078125 124.640625 -53.421875 C 124.640625 -52.753906 124.96875 -52.421875 125.625 -52.421875 C 126.289062 -52.421875 126.785156 -52.257812 127.109375 -51.9375 C 128.097656 -50.613281 128.921875 -50.363281 129.578125 -51.1875 C 130.242188 -52.007812 130.90625 -52.421875 131.5625 -52.421875 C 131.5625 -50.117188 132.390625 -48.472656 134.046875 -47.484375 C 132.722656 -47.148438 131.8125 -46.488281 131.3125 -45.5 C 130.820312 -44.507812 129.914062 -43.851562 128.59375 -43.53125 C 127.601562 -43.53125 127.441406 -43.195312 128.109375 -42.53125 C 128.765625 -42.207031 129.421875 -41.710938 130.078125 -41.046875 C 130.742188 -40.390625 131.40625 -40.722656 132.0625 -42.046875 C 133.050781 -43.035156 133.875 -43.691406 134.53125 -44.015625 C 136.175781 -44.679688 137.332031 -44.847656 138 -44.515625 C 138.65625 -44.179688 138.816406 -43.765625 138.484375 -43.265625 C 138.160156 -42.773438 137.832031 -42.203125 137.5 -41.546875 C 137.5 -40.890625 137.664062 -40.5625 138 -40.5625 C 138.988281 -40.5625 139.644531 -40.972656 139.96875 -41.796875 C 140.300781 -42.617188 140.796875 -43.195312 141.453125 -43.53125 C 142.441406 -44.519531 142.609375 -45.015625 141.953125 -45.015625 C 140.628906 -45.671875 140.132812 -46.570312 140.46875 -47.71875 C 140.800781 -48.875 140.632812 -49.617188 139.96875 -49.953125 C 140.632812 -50.609375 141.378906 -50.441406 142.203125 -49.453125 C 143.023438 -48.472656 143.601562 -48.472656 143.9375 -49.453125 C 144.59375 -50.117188 145.332031 -50.695312 146.15625 -51.1875 C 146.976562 -51.6875 147.0625 -52.265625 146.40625 -52.921875 C 146.070312 -53.910156 145.492188 -54.320312 144.671875 -54.15625 C 143.847656 -53.988281 143.109375 -53.90625 142.453125 -53.90625 L 141.953125 -53.90625 C 141.296875 -54.238281 140.472656 -54.320312 139.484375 -54.15625 C 138.492188 -53.988281 138.160156 -54.398438 138.484375 -55.390625 C 138.484375 -56.378906 138.894531 -56.707031 139.71875 -56.375 C 140.550781 -56.050781 141.296875 -55.722656 141.953125 -55.390625 C 143.273438 -55.390625 143.9375 -56.21875 143.9375 -57.875 Z M 118.703125 -61.828125 C 118.703125 -60.835938 119.363281 -60.34375 120.6875 -60.34375 C 121.007812 -61 121.335938 -61.492188 121.671875 -61.828125 C 122.003906 -62.160156 122.003906 -62.65625 121.671875 -63.3125 C 121.671875 -64.625 121.175781 -64.953125 120.1875 -64.296875 C 119.195312 -63.960938 118.703125 -63.140625 118.703125 -61.828125 Z M 46.5 -63.3125 C 46.5 -62.320312 46.992188 -61.828125 47.984375 -61.828125 C 48.304688 -61.828125 48.796875 -62.15625 49.453125 -62.8125 C 49.785156 -63.46875 49.785156 -63.878906 49.453125 -64.046875 C 49.128906 -64.210938 48.800781 -64.128906 48.46875 -63.796875 C 47.476562 -63.796875 46.820312 -63.632812 46.5 -63.3125 Z M 54.90625 -62.8125 C 54.570312 -63.144531 54.566406 -63.472656 54.890625 -63.796875 C 55.222656 -64.128906 55.0625 -64.128906 54.40625 -63.796875 C 53.75 -63.796875 53.421875 -63.140625 53.421875 -61.828125 C 53.085938 -61.492188 53.082031 -61.160156 53.40625 -60.828125 C 53.738281 -60.503906 54.070312 -60.507812 54.40625 -60.84375 C 54.738281 -60.84375 54.90625 -61.5 54.90625 -62.8125 Z M 149.859375 -60.34375 C 149.859375 -59.351562 150.191406 -58.859375 150.859375 -58.859375 C 151.847656 -58.859375 152.503906 -59.351562 152.828125 -60.34375 C 152.828125 -60.675781 152.5 -61.171875 151.84375 -61.828125 C 151.1875 -61.828125 150.523438 -61.332031 149.859375 -60.34375 Z M 123.65625 -58.359375 C 122.988281 -57.703125 123.148438 -57.375 124.140625 -57.375 C 124.804688 -57.707031 125.300781 -57.875 125.625 -57.875 C 125.957031 -57.875 126.289062 -58.035156 126.625 -58.359375 C 126.625 -59.347656 126.289062 -59.84375 125.625 -59.84375 C 124.3125 -59.84375 123.65625 -59.347656 123.65625 -58.359375 Z M 147.890625 -58.859375 C 148.546875 -59.515625 148.21875 -59.84375 146.90625 -59.84375 C 146.238281 -59.84375 145.578125 -59.347656 144.921875 -58.359375 C 144.921875 -57.367188 145.414062 -56.875 146.40625 -56.875 C 147.394531 -56.550781 147.890625 -57.210938 147.890625 -58.859375 Z M 159.265625 -53.90625 C 160.910156 -53.25 161.898438 -53.582031 162.234375 -54.90625 C 162.554688 -55.226562 162.71875 -55.882812 162.71875 -56.875 C 162.394531 -57.207031 162.3125 -57.617188 162.46875 -58.109375 C 162.632812 -58.609375 162.390625 -59.023438 161.734375 -59.359375 C 160.742188 -59.359375 160.25 -58.695312 160.25 -57.375 C 160.25 -57.039062 160.164062 -56.789062 160 -56.625 C 159.84375 -56.46875 159.765625 -56.222656 159.765625 -55.890625 C 159.429688 -55.554688 159.015625 -55.222656 158.515625 -54.890625 C 158.023438 -54.566406 158.273438 -54.238281 159.265625 -53.90625 Z M 47.984375 -58.859375 L 47.484375 -58.859375 C 46.828125 -58.203125 46.5 -57.707031 46.5 -57.375 C 46.5 -57.039062 46.828125 -56.875 47.484375 -56.875 Z M 154.3125 -56.875 C 153.320312 -56.875 152.992188 -56.378906 153.328125 -55.390625 C 153.328125 -54.078125 153.820312 -53.582031 154.8125 -53.90625 C 155.144531 -53.90625 155.3125 -54.238281 155.3125 -54.90625 C 155.3125 -56.21875 154.976562 -56.875 154.3125 -56.875 Z M 150.359375 -53.90625 C 150.359375 -54.894531 150.191406 -55.226562 149.859375 -54.90625 C 149.535156 -54.570312 149.375 -54.238281 149.375 -53.90625 C 149.375 -53.582031 149.207031 -53.085938 148.875 -52.421875 C 148.21875 -51.765625 148.382812 -51.4375 149.375 -51.4375 C 150.03125 -51.769531 150.359375 -52.59375 150.359375 -53.90625 Z M 53.90625 -51.4375 C 53.90625 -51.4375 54.070312 -51.4375 54.40625 -51.4375 C 54.738281 -51.4375 55.066406 -51.601562 55.390625 -51.9375 L 53.90625 -53.421875 C 53.25 -54.078125 52.921875 -54.078125 52.921875 -53.421875 C 52.921875 -52.753906 53.25 -52.09375 53.90625 -51.4375 Z M 46.5 -50.9375 C 46.5 -49.945312 46.992188 -49.453125 47.984375 -49.453125 C 49.296875 -49.453125 49.953125 -50.28125 49.953125 -51.9375 C 49.953125 -53.25 49.625 -53.742188 48.96875 -53.421875 C 47.320312 -53.421875 46.5 -52.59375 46.5 -50.9375 Z M 163.71875 -52.921875 C 163.71875 -51.597656 163.878906 -50.9375 164.203125 -50.9375 C 164.867188 -50.9375 165.363281 -51.101562 165.6875 -51.4375 C 165.6875 -52.09375 165.359375 -52.753906 164.703125 -53.421875 C 164.046875 -53.742188 163.71875 -53.578125 163.71875 -52.921875 Z M 136.015625 -52.921875 C 137.003906 -53.253906 137.828125 -53.003906 138.484375 -52.171875 C 139.148438 -51.347656 139.644531 -50.609375 139.96875 -49.953125 C 139.644531 -48.304688 138.328125 -46.988281 136.015625 -46 C 134.703125 -45.007812 134.046875 -45.503906 134.046875 -47.484375 C 134.046875 -47.816406 134.125 -48.0625 134.28125 -48.21875 C 134.445312 -48.382812 134.53125 -48.46875 134.53125 -48.46875 C 134.53125 -49.457031 134.53125 -50.363281 134.53125 -51.1875 C 134.53125 -52.007812 135.023438 -52.585938 136.015625 -52.921875 Z M 36.109375 -50.453125 C 36.429688 -50.453125 37.085938 -50.945312 38.078125 -51.9375 C 38.078125 -52.59375 37.75 -52.921875 37.09375 -52.921875 C 36.4375 -52.921875 36.109375 -52.425781 36.109375 -51.4375 C 35.453125 -50.78125 35.453125 -50.453125 36.109375 -50.453125 Z M 123.15625 -45.5 C 123.8125 -45.5 124.304688 -45.582031 124.640625 -45.75 C 124.972656 -45.914062 125.300781 -46 125.625 -46 C 126.613281 -46 127.273438 -46.492188 127.609375 -47.484375 C 127.941406 -48.472656 127.773438 -48.800781 127.109375 -48.46875 C 126.453125 -48.144531 125.957031 -48.144531 125.625 -48.46875 C 125.625 -49.125 125.296875 -49.453125 124.640625 -49.453125 C 123.648438 -50.441406 122.828125 -50.773438 122.171875 -50.453125 C 121.835938 -50.117188 121.503906 -49.785156 121.171875 -49.453125 C 120.847656 -49.128906 120.847656 -48.640625 121.171875 -47.984375 C 121.835938 -46.328125 122.5 -45.5 123.15625 -45.5 Z M 159.265625 -44.515625 C 159.921875 -44.515625 160.25 -45.007812 160.25 -46 C 159.925781 -46.332031 159.679688 -46.742188 159.515625 -47.234375 C 159.347656 -47.734375 158.9375 -48.144531 158.28125 -48.46875 C 157.945312 -48.800781 157.613281 -48.800781 157.28125 -48.46875 C 156.957031 -48.144531 156.796875 -47.816406 156.796875 -47.484375 C 156.460938 -46.492188 155.800781 -46 154.8125 -46 C 153.488281 -46 153.160156 -45.671875 153.828125 -45.015625 C 154.484375 -43.359375 155.140625 -42.367188 155.796875 -42.046875 C 156.460938 -41.378906 156.796875 -41.707031 156.796875 -43.03125 C 157.117188 -43.6875 157.523438 -44.015625 158.015625 -44.015625 C 158.515625 -44.015625 158.929688 -44.179688 159.265625 -44.515625 Z M 166.1875 -46.984375 C 165.53125 -47.648438 165.035156 -47.984375 164.703125 -47.984375 C 164.046875 -47.984375 163.71875 -47.648438 163.71875 -46.984375 C 163.71875 -45.671875 164.210938 -45.175781 165.203125 -45.5 C 165.859375 -45.5 166.1875 -45.992188 166.1875 -46.984375 Z M 147.390625 -38.078125 C 147.722656 -37.753906 148.050781 -37.425781 148.375 -37.09375 C 148.707031 -36.757812 148.378906 -36.429688 147.390625 -36.109375 C 146.398438 -35.453125 146.070312 -34.460938 146.40625 -33.140625 C 147.0625 -32.148438 147.71875 -31.738281 148.375 -31.90625 C 149.039062 -32.070312 149.535156 -32.316406 149.859375 -32.640625 C 149.535156 -32.972656 149.375 -33.632812 149.375 -34.625 C 150.03125 -35.613281 150.519531 -36.679688 150.84375 -37.828125 C 151.175781 -38.984375 150.519531 -39.894531 148.875 -40.5625 C 148.539062 -41.21875 148.539062 -41.710938 148.875 -42.046875 C 149.207031 -42.367188 149.535156 -42.53125 149.859375 -42.53125 C 150.191406 -42.53125 150.359375 -42.695312 150.359375 -43.03125 C 150.359375 -43.6875 149.695312 -43.6875 148.375 -43.03125 C 147.0625 -42.695312 146.238281 -42.035156 145.90625 -41.046875 C 145.582031 -40.054688 146.078125 -39.066406 147.390625 -38.078125 Z M 142.9375 -40.5625 C 142.613281 -40.5625 142.453125 -40.476562 142.453125 -40.3125 C 142.453125 -40.144531 142.285156 -40.0625 141.953125 -40.0625 C 141.617188 -40.0625 141.453125 -39.734375 141.453125 -39.078125 C 142.117188 -39.734375 142.453125 -40.0625 142.453125 -40.0625 C 142.773438 -40.0625 142.9375 -40.144531 142.9375 -40.3125 C 142.9375 -40.476562 142.9375 -40.5625 142.9375 -40.5625 Z M 125.140625 -32.640625 C 125.460938 -32.640625 125.625 -32.476562 125.625 -32.15625 C 126.289062 -32.15625 126.953125 -32.484375 127.609375 -33.140625 C 127.609375 -33.472656 127.691406 -33.71875 127.859375 -33.875 C 128.023438 -34.039062 128.109375 -34.289062 128.109375 -34.625 C 128.765625 -35.28125 129.09375 -35.609375 129.09375 -35.609375 C 129.75 -36.929688 129.582031 -37.753906 128.59375 -38.078125 L 127.609375 -38.078125 C 126.617188 -37.085938 126.453125 -36.265625 127.109375 -35.609375 L 128.109375 -34.625 C 127.441406 -34.625 126.945312 -34.457031 126.625 -34.125 C 125.632812 -34.125 125.140625 -33.628906 125.140625 -32.640625 Z M 167.671875 -33.640625 C 167.671875 -34.296875 167.671875 -35.035156 167.671875 -35.859375 C 167.671875 -36.679688 167.34375 -37.09375 166.6875 -37.09375 C 166.019531 -37.09375 165.769531 -36.679688 165.9375 -35.859375 C 166.101562 -35.035156 166.019531 -34.296875 165.6875 -33.640625 C 165.363281 -33.304688 165.035156 -33.140625 164.703125 -33.140625 C 164.367188 -33.140625 164.203125 -32.972656 164.203125 -32.640625 C 164.203125 -31.984375 164.035156 -31.570312 163.703125 -31.40625 C 163.378906 -31.238281 163.21875 -30.828125 163.21875 -30.171875 C 163.21875 -30.171875 163.300781 -30.085938 163.46875 -29.921875 C 163.632812 -29.753906 163.878906 -29.671875 164.203125 -29.671875 C 165.191406 -30.003906 165.6875 -30.832031 165.6875 -32.15625 L 165.6875 -33.640625 C 166.019531 -33.960938 166.347656 -33.710938 166.671875 -32.890625 C 167.003906 -32.066406 167.335938 -32.316406 167.671875 -33.640625 Z M 140.46875 -29.671875 C 141.125 -29.347656 141.535156 -29.265625 141.703125 -29.421875 C 141.867188 -29.585938 141.953125 -29.671875 141.953125 -29.671875 C 142.609375 -30.660156 142.6875 -31.734375 142.1875 -32.890625 C 141.695312 -34.046875 142.113281 -34.953125 143.4375 -35.609375 L 142.9375 -35.609375 C 141.625 -35.285156 140.96875 -34.707031 140.96875 -33.875 C 140.96875 -33.050781 140.800781 -32.3125 140.46875 -31.65625 C 140.46875 -31.320312 140.382812 -31.15625 140.21875 -31.15625 C 140.050781 -31.15625 139.96875 -30.992188 139.96875 -30.671875 C 139.644531 -30.003906 139.644531 -29.671875 139.96875 -29.671875 C 140.300781 -29.671875 140.46875 -29.671875 140.46875 -29.671875 Z M 157.28125 -31.15625 C 157.28125 -30.832031 157.363281 -30.671875 157.53125 -30.671875 C 157.695312 -30.671875 157.78125 -30.671875 157.78125 -30.671875 C 157.445312 -30.671875 156.953125 -30.503906 156.296875 -30.171875 C 155.640625 -29.835938 154.976562 -29.507812 154.3125 -29.1875 C 153.988281 -29.1875 153.828125 -29.019531 153.828125 -28.6875 C 153.828125 -28.351562 153.988281 -28.1875 154.3125 -28.1875 C 154.976562 -27.863281 155.804688 -27.78125 156.796875 -27.9375 C 157.785156 -28.101562 158.113281 -29.015625 157.78125 -30.671875 C 159.101562 -31.984375 158.9375 -32.804688 157.28125 -33.140625 C 155.96875 -33.140625 155.3125 -32.8125 155.3125 -32.15625 C 155.3125 -32.15625 155.96875 -31.820312 157.28125 -31.15625 Z M 138 -20.28125 C 139.644531 -21.59375 139.644531 -23.40625 138 -25.71875 C 138 -28.03125 136.515625 -29.84375 133.546875 -31.15625 C 132.222656 -32.144531 131.234375 -32.144531 130.578125 -31.15625 C 130.242188 -30.832031 129.910156 -30.585938 129.578125 -30.421875 C 129.253906 -30.253906 128.765625 -30.003906 128.109375 -29.671875 C 126.128906 -28.359375 126.289062 -27.367188 128.59375 -26.703125 C 128.925781 -26.703125 129.421875 -26.375 130.078125 -25.71875 C 130.410156 -25.0625 130.660156 -24.8125 130.828125 -24.96875 C 130.992188 -25.132812 131.078125 -25.382812 131.078125 -25.71875 C 131.078125 -28.03125 131.898438 -28.359375 133.546875 -26.703125 C 134.203125 -26.046875 134.941406 -25.800781 135.765625 -25.96875 C 136.585938 -26.132812 137.332031 -26.050781 138 -25.71875 C 138 -25.382812 138 -24.804688 138 -23.984375 C 138 -23.160156 137.503906 -22.75 136.515625 -22.75 C 136.179688 -22.414062 135.847656 -22.414062 135.515625 -22.75 C 135.191406 -23.082031 134.863281 -22.914062 134.53125 -22.25 C 134.207031 -21.269531 134.535156 -20.613281 135.515625 -20.28125 C 136.179688 -20.28125 136.675781 -20.195312 137 -20.03125 C 137.332031 -19.863281 137.664062 -19.945312 138 -20.28125 Z M 146.40625 -29.671875 C 147.0625 -28.679688 148.050781 -28.519531 149.375 -29.1875 C 151.675781 -30.175781 151.835938 -31.164062 149.859375 -32.15625 L 148.375 -30.671875 C 148.050781 -30.335938 147.554688 -30.253906 146.890625 -30.421875 C 146.234375 -30.585938 146.070312 -30.335938 146.40625 -29.671875 Z M 49.953125 -27.703125 C 50.941406 -27.703125 51.109375 -28.03125 50.453125 -28.6875 C 50.453125 -29.019531 50.117188 -29.515625 49.453125 -30.171875 C 49.128906 -30.171875 48.96875 -29.84375 48.96875 -29.1875 C 49.289062 -28.851562 49.453125 -28.519531 49.453125 -28.1875 C 49.453125 -27.863281 49.617188 -27.703125 49.953125 -27.703125 Z M 171.140625 -27.703125 C 171.796875 -27.703125 172.125 -28.03125 172.125 -28.6875 L 171.625 -29.671875 C 170.632812 -29.671875 170.140625 -29.34375 170.140625 -28.6875 C 170.140625 -28.03125 170.472656 -27.703125 171.140625 -27.703125 Z M 149.375 -24.234375 C 150.03125 -23.898438 150.601562 -23.898438 151.09375 -24.234375 C 151.59375 -24.566406 152.007812 -24.734375 152.34375 -24.734375 L 152.828125 -24.734375 C 152.828125 -22.421875 154.3125 -20.9375 157.28125 -20.28125 C 157.945312 -20.28125 158.441406 -20.445312 158.765625 -20.78125 C 158.765625 -21.757812 158.601562 -22.085938 158.28125 -21.765625 C 156.957031 -21.429688 156.046875 -21.84375 155.546875 -23 C 155.054688 -24.15625 154.148438 -24.734375 152.828125 -24.734375 C 152.171875 -26.378906 151.179688 -26.875 149.859375 -26.21875 Z M 161.25 -25.21875 C 161.25 -24.226562 161.738281 -23.734375 162.71875 -23.734375 C 163.382812 -24.066406 163.960938 -24.148438 164.453125 -23.984375 C 164.953125 -23.816406 165.203125 -24.226562 165.203125 -25.21875 C 164.867188 -25.21875 164.453125 -25.21875 163.953125 -25.21875 C 163.460938 -25.21875 162.890625 -25.382812 162.234375 -25.71875 C 161.578125 -26.375 161.25 -26.207031 161.25 -25.21875 Z M 29.1875 -22.75 L 29.671875 -23.25 C 29.347656 -23.90625 29.101562 -24.394531 28.9375 -24.71875 C 28.769531 -25.050781 28.359375 -25.382812 27.703125 -25.71875 C 27.035156 -25.0625 26.703125 -24.734375 26.703125 -24.734375 C 27.035156 -23.410156 27.863281 -22.75 29.1875 -22.75 Z M 144.921875 -20.78125 C 145.578125 -20.78125 145.90625 -21.109375 145.90625 -21.765625 C 145.90625 -22.421875 145.578125 -22.75 144.921875 -22.75 C 144.265625 -22.75 143.9375 -22.582031 143.9375 -22.25 C 143.9375 -21.269531 144.265625 -20.78125 144.921875 -20.78125 Z M 165.203125 -20.28125 C 165.859375 -21.269531 165.195312 -21.765625 163.21875 -21.765625 C 162.5625 -21.765625 162.234375 -21.4375 162.234375 -20.78125 C 162.234375 -19.457031 162.890625 -18.796875 164.203125 -18.796875 C 164.867188 -19.453125 165.203125 -19.945312 165.203125 -20.28125 Z M 158.28125 -12.859375 C 159.269531 -12.859375 159.925781 -13.1875 160.25 -13.84375 L 158.28125 -13.84375 C 156.957031 -14.507812 156.296875 -15.5 156.296875 -16.8125 C 156.296875 -17.800781 155.800781 -18.296875 154.8125 -18.296875 C 154.15625 -18.296875 153.742188 -18.046875 153.578125 -17.546875 C 153.410156 -17.054688 153.160156 -16.484375 152.828125 -15.828125 C 152.503906 -15.492188 152.421875 -15.160156 152.578125 -14.828125 C 152.742188 -14.503906 152.992188 -14.34375 153.328125 -14.34375 C 154.316406 -14.007812 155.140625 -13.59375 155.796875 -13.09375 C 156.460938 -12.601562 157.289062 -12.523438 158.28125 -12.859375 Z M 131.078125 -14.34375 C 131.734375 -14.675781 132.304688 -14.675781 132.796875 -14.34375 C 133.296875 -14.007812 133.710938 -13.84375 134.046875 -13.84375 C 133.710938 -14.832031 133.378906 -15.328125 133.046875 -15.328125 C 132.054688 -15.992188 131.234375 -15.992188 130.578125 -15.328125 C 129.921875 -14.671875 130.085938 -14.34375 131.078125 -14.34375 Z M 144.421875 -11.875 C 144.753906 -11.875 144.921875 -12.035156 144.921875 -12.359375 C 144.585938 -12.691406 143.765625 -13.1875 142.453125 -13.84375 C 142.117188 -14.175781 141.867188 -14.257812 141.703125 -14.09375 C 141.535156 -13.925781 141.617188 -13.679688 141.953125 -13.359375 C 142.941406 -12.367188 143.765625 -11.875 144.421875 -11.875 Z M 144.421875 -11.875 "/></g></g></g></g></g></svg>