<svg xmlns="http://www.w3.org/2000/svg" width="1200" height="630" viewBox="0 0 1200 630" role="img" aria-labelledby="title desc">
  <title id="title">SW DE TR Kay&#305;t - almanya101 - hep destek! tam destek!</title>
  <desc id="desc">almanya101 developer toplulugu kayit sayfasi sosyal paylasim gorseli</desc>
  <defs>
    <linearGradient id="bg" x1="0" y1="0" x2="1" y2="1">
      <stop offset="0%" stop-color="#0b0b0f" />
      <stop offset="55%" stop-color="#1d1f2a" />
      <stop offset="100%" stop-color="#f65314" />
    </linearGradient>
    <radialGradient id="glow" cx="72%" cy="22%" r="55%">
      <stop offset="0%" stop-color="#ff8d5b" stop-opacity="0.55" />
      <stop offset="100%" stop-color="#ff8d5b" stop-opacity="0" />
    </radialGradient>
    <filter id="soft" x="-20%" y="-20%" width="140%" height="140%">
      <feGaussianBlur stdDeviation="28" />
    </filter>
  </defs>

  <rect width="1200" height="630" fill="url(#bg)" />
  <rect width="1200" height="630" fill="url(#glow)" />

  <g opacity="0.18" stroke="#ffffff" stroke-width="2" fill="none">
    <path d="M70 500 C240 440, 420 540, 620 470" />
    <path d="M180 560 C360 500, 540 610, 760 530" />
    <path d="M700 120 C860 70, 1010 165, 1130 105" />
  </g>

  <g filter="url(#soft)">
    <circle cx="1055" cy="85" r="70" fill="#f65314" opacity="0.55" />
    <circle cx="930" cy="550" r="90" fill="#111827" opacity="0.85" />
  </g>

  <rect x="56" y="56" width="1088" height="518" rx="26" fill="#0b0e14" fill-opacity="0.56" stroke="#ffffff" stroke-opacity="0.22" />

  <text x="96" y="154" fill="#f65314" font-family="Segoe UI, Arial, sans-serif" font-size="42" font-weight="700" letter-spacing="1.5">almanya101</text>
  <text x="96" y="250" fill="#ffffff" font-family="Segoe UI, Arial, sans-serif" font-size="74" font-weight="800">SW DE TR Kay&#305;t</text>
  <text x="96" y="336" fill="#d1d5db" font-family="Segoe UI, Arial, sans-serif" font-size="44" font-weight="600">hep destek! tam destek!</text>

  <g transform="translate(96 426)">
    <rect width="212" height="64" rx="14" fill="#f65314" />
    <text x="106" y="43" fill="#ffffff" text-anchor="middle" font-family="Segoe UI, Arial, sans-serif" font-size="30" font-weight="700">Kay&#305;t</text>
  </g>

  <g transform="translate(340 426)">
    <rect width="318" height="64" rx="14" fill="#111827" stroke="#ffffff" stroke-opacity="0.28" />
    <text x="159" y="43" fill="#ffffff" text-anchor="middle" font-family="Segoe UI, Arial, sans-serif" font-size="28" font-weight="600">software toplulugu</text>
  </g>
</svg>
